<svg width="240" height="131" viewBox="0 0 240 131" fill="none" xmlns="http://www.w3.org/2000/svg">
<path d="M62.5428 103.482C62.5428 97.9318 58.0438 93.4327 52.4939 93.4327V93.4327C46.9441 93.4327 42.4451 97.9318 42.4451 103.482V120.551C42.4451 126.101 46.9441 130.6 52.4939 130.6V130.6C58.0438 130.6 62.5428 126.101 62.5428 120.551V103.482Z" fill="#FFC3A0"/>
<path d="M14.2704 45.2954C14.2704 65.8008 30.8933 82.4236 51.3987 82.4236C71.9041 82.4236 88.527 65.8008 88.527 45.2954C88.527 24.79 71.9041 8.16711 51.3987 8.16711C30.8933 8.16711 14.2704 24.79 14.2704 45.2954Z" fill="#593029"/>
<path d="M2.68808e-05 61.1064C2.68808e-05 67.3855 5.09029 72.4758 11.3694 72.4758C17.6486 72.4758 22.7389 67.3855 22.7389 61.1064C22.7389 54.8272 17.6486 49.7369 11.3694 49.7369C5.09029 49.7369 2.68808e-05 54.8272 2.68808e-05 61.1064Z" fill="#FFD9C2"/>
<path d="M4.26351 61.1059C4.26351 65.0304 7.44492 68.2118 11.3694 68.2118C15.2939 68.2118 18.4753 65.0304 18.4753 61.1059C18.4753 57.1815 15.2939 54.0001 11.3694 54.0001C7.44492 54.0001 4.26351 57.1815 4.26351 61.1059Z" fill="#FFC3A0"/>
<path d="M79.6427 61.1064C79.6427 67.3855 84.733 72.4758 91.0121 72.4758C97.2913 72.4758 102.382 67.3855 102.382 61.1064C102.382 54.8272 97.2913 49.7369 91.0121 49.7369C84.733 49.7369 79.6427 54.8272 79.6427 61.1064Z" fill="#FFD9C2"/>
<path d="M83.9062 61.1059C83.9062 65.0304 87.0877 68.2118 91.0121 68.2118C94.9366 68.2118 98.118 65.0304 98.118 61.1059C98.118 57.1815 94.9366 54.0001 91.0121 54.0001C87.0877 54.0001 83.9062 57.1815 83.9062 61.1059Z" fill="#FFC9A9"/>
<path d="M86.9281 47.6052C86.9281 27.9828 71.0211 12.0757 51.3987 12.0757V12.0757C31.7763 12.0757 15.8692 27.9828 15.8692 47.6051V83.1345C15.8692 102.757 31.7763 118.664 51.3987 118.664V118.664C71.0211 118.664 86.9281 102.757 86.9281 83.1346V47.6052Z" fill="#FFD9C2"/>
<path d="M70.6125 31.2602C70.6125 37.7611 75.8825 43.0312 82.3835 43.0312C88.8845 43.0312 94.1545 37.7611 94.1545 31.2602C94.1545 24.7592 88.8845 19.4891 82.3835 19.4891C75.8825 19.4891 70.6125 24.7592 70.6125 31.2602Z" fill="#593029"/>
<path d="M30.3841 23.1026C30.3841 29.6036 35.6541 34.8736 42.1551 34.8736C48.6561 34.8736 53.9261 29.6036 53.9261 23.1026C53.9261 16.6016 48.6561 11.3315 42.1551 11.3315C35.6541 11.3315 30.3841 16.6016 30.3841 23.1026Z" fill="#593029"/>
<path d="M59.8751 11.771C59.8751 18.272 54.605 23.5421 48.1041 23.5421C41.6031 23.5421 36.333 18.272 36.333 11.771C36.333 5.27008 41.6031 0 48.1041 0C54.605 0 59.8751 5.27008 59.8751 11.771Z" fill="#593029"/>
<path d="M19.2328 20.0928C19.2328 26.5937 24.5029 31.8638 31.0039 31.8638C37.5048 31.8638 42.7749 26.5937 42.7749 20.0928C42.7749 13.5918 37.5048 8.32172 31.0039 8.32172C24.5029 8.32172 19.2328 13.5918 19.2328 20.0928Z" fill="#593029"/>
<path d="M12.3636 32.0386C12.3636 38.5396 17.6336 43.8097 24.1346 43.8097C30.6356 43.8097 35.9056 38.5396 35.9056 32.0386C35.9056 25.5377 30.6356 20.2676 24.1346 20.2676C17.6336 20.2676 12.3636 25.5377 12.3636 32.0386Z" fill="#593029"/>
<path d="M50.3386 19.4891C50.3386 28.5532 57.6866 35.9012 66.7507 35.9012C75.8148 35.9012 83.1628 28.5532 83.1628 19.4891C83.1628 10.425 75.8148 3.07703 66.7507 3.07703C57.6866 3.07703 50.3386 10.425 50.3386 19.4891Z" fill="#593029"/>
<path fill-rule="evenodd" clip-rule="evenodd" d="M33.1867 47.8227C34.9141 47.6607 36.5928 48.2734 37.5673 48.8857C38.4771 49.4573 39.678 49.1832 40.2496 48.2734C40.8212 47.3636 40.5471 46.1627 39.6373 45.5911C38.1156 44.635 35.5915 43.6892 32.8234 43.9488C29.9253 44.2205 26.9819 45.7986 24.8446 49.5006C24.3074 50.4311 24.6262 51.6209 25.5567 52.1582C26.4872 52.6954 27.677 52.3766 28.2142 51.4461C29.7442 48.796 31.5892 47.9725 33.1867 47.8227Z" fill="#593029"/>
<path fill-rule="evenodd" clip-rule="evenodd" d="M71.1013 48.2714C72.6783 48.9948 73.8258 50.3649 74.3636 51.3824C74.8657 52.3323 76.0428 52.6953 76.9927 52.1932C77.9426 51.6911 78.3056 50.5141 77.8036 49.5641C76.9637 47.9753 75.2508 45.8941 72.7237 44.7349C70.078 43.5212 66.7399 43.4162 63.0379 45.5535C62.1074 46.0907 61.7886 47.2806 62.3259 48.2111C62.8631 49.1416 64.0529 49.4604 64.9834 48.9231C67.6334 47.3931 69.643 47.6024 71.1013 48.2714Z" fill="#593029"/>
<path fill-rule="evenodd" clip-rule="evenodd" d="M66.2982 58.0334C67.0184 58.3638 67.5424 58.9894 67.788 59.4541C68.0173 59.8879 68.5548 60.0536 68.9886 59.8244C69.4224 59.5951 69.5882 59.0575 69.3589 58.6238C68.9754 57.8982 68.1931 56.9478 67.0391 56.4184C65.8309 55.8642 64.3066 55.8162 62.616 56.7923C62.1911 57.0376 62.0455 57.5809 62.2908 58.0059C62.5361 58.4308 63.0795 58.5764 63.5044 58.331C64.7146 57.6323 65.6323 57.7279 66.2982 58.0334Z" fill="#FFC9A9"/>
<path d="M62.2032 57.1775C62.2032 59.1627 63.8126 60.7721 65.7979 60.7721C67.7831 60.7721 69.3925 59.1627 69.3925 57.1775C69.3925 55.1922 67.7831 53.5828 65.7979 53.5828C63.8126 53.5828 62.2032 55.1922 62.2032 57.1775Z" fill="#232323"/>
<path d="M66.7494 55.5521C66.7494 56.4498 67.477 57.1775 68.3747 57.1775C69.2723 57.1775 70 56.4498 70 55.5521C70 54.6545 69.2723 53.9268 68.3747 53.9268C67.477 53.9268 66.7494 54.6545 66.7494 55.5521Z" fill="white"/>
<path fill-rule="evenodd" clip-rule="evenodd" d="M36.4504 58.0334C35.7303 58.3638 35.2063 58.9894 34.9607 59.4541C34.7314 59.8879 34.1938 60.0536 33.7601 59.8244C33.3263 59.5951 33.1605 59.0575 33.3898 58.6238C33.7733 57.8982 34.5555 56.9478 35.7095 56.4184C36.9177 55.8642 38.4421 55.8162 40.1327 56.7923C40.5576 57.0376 40.7032 57.5809 40.4578 58.0059C40.2125 58.4308 39.6692 58.5764 39.2442 58.331C38.0341 57.6323 37.1164 57.7279 36.4504 58.0334Z" fill="#FFC9A9"/>
<path d="M34 57.1775C34 59.1627 35.6094 60.7721 37.5947 60.7721C39.58 60.7721 41.1894 59.1627 41.1894 57.1775C41.1894 55.1922 39.58 53.5828 37.5947 53.5828C35.6094 53.5828 34 55.1922 34 57.1775Z" fill="#232323"/>
<path d="M38.5462 55.5521C38.5462 56.4498 39.2739 57.1775 40.1716 57.1775C41.0692 57.1775 41.7969 56.4498 41.7969 55.5521C41.7969 54.6545 41.0692 53.9268 40.1716 53.9268C39.2739 53.9268 38.5462 54.6545 38.5462 55.5521Z" fill="white"/>
<path fill-rule="evenodd" clip-rule="evenodd" d="M34.6378 74.6281C34.638 84.475 42.6205 92.4574 52.4674 92.4574C62.3143 92.4574 70.2968 84.475 70.2969 74.6281H34.6378Z" fill="#232323"/>
<path fill-rule="evenodd" clip-rule="evenodd" d="M65.6773 86.6073C63.41 84.6931 60.4799 83.5394 57.2803 83.5394C52.065 83.5394 47.5657 86.6048 45.4858 91.0323C47.6319 91.9475 49.9941 92.4541 52.4746 92.4541C57.7084 92.4541 62.4155 90.1989 65.6773 86.6073Z" fill="#FF0065"/>
<path fill-rule="evenodd" clip-rule="evenodd" d="M87.4614 64.0631C82.2336 73.118 70.6552 76.2204 61.6003 70.9925C58.423 69.1582 53.9696 69.0878 52.4674 71.096C50.9653 69.0878 46.5119 69.1582 43.3346 70.9925C34.2797 76.2204 22.7013 73.118 17.4734 64.0631C17.1683 63.5346 16.3667 63.5996 16.2318 64.1947C15.2147 68.68 15.8196 73.5455 18.3005 77.8426C23.5284 86.8975 35.1068 89.9999 44.1617 84.7721C48.1576 82.4651 50.9943 78.9213 52.4674 74.9035C53.9406 78.9213 56.7773 82.4651 60.7731 84.7721C69.828 89.9999 81.4065 86.8975 86.6343 77.8426C89.1153 73.5455 89.7201 68.68 88.7031 64.1947C88.5682 63.5996 87.7665 63.5346 87.4614 64.0631Z" fill="#593029"/>
<path d="M57.8999 55.1693H45.4896V71.0926C45.4896 74.5196 48.2678 77.2977 51.6948 77.2977V77.2977C55.1218 77.2977 57.8999 74.5196 57.8999 71.0926V55.1693Z" fill="#FFC3A0"/>
<path d="M181.257 26.6267L141.213 2.46154C137.96 0.499065 132.977 2.40348 132.977 7.25742V55.5761C132.977 59.9307 137.607 62.5551 141.213 60.372L181.257 36.2185C184.829 34.0702 184.84 28.775 181.257 26.6267V26.6267Z" fill="#B519FF"/>
<path d="M210.271 127.409C193.849 127.409 180.543 114.103 180.543 97.6799C180.543 81.2572 193.849 67.9513 210.271 67.9513C226.694 67.9513 240 81.2572 240 97.6799C240 114.103 226.694 127.409 210.271 127.409ZM208.353 88.09C208.353 87.0351 207.49 86.172 206.435 86.172H200.681C199.626 86.172 198.763 87.0351 198.763 88.09V107.27C198.763 108.325 199.626 109.188 200.681 109.188H206.435C207.49 109.188 208.353 108.325 208.353 107.27V88.09ZM221.779 88.09C221.779 87.0351 220.916 86.172 219.861 86.172H214.107C213.052 86.172 212.189 87.0351 212.189 88.09V107.27C212.189 108.325 213.052 109.188 214.107 109.188H219.861C220.916 109.188 221.779 108.325 221.779 107.27V88.09Z" fill="#B519FF"/>
</svg>
