<svg width="576" height="682" viewBox="0 0 576 682" fill="none" xmlns="http://www.w3.org/2000/svg">
<rect width="46.036" height="182.588" rx="23.018" transform="matrix(-1 8.74228e-08 8.74228e-08 1 404.729 364.485)" fill="#FFD9C2"/>
<rect width="46.036" height="182.588" rx="23.018" transform="matrix(0.258819 -0.965926 -0.965926 -0.258819 397.277 556.357)" fill="#FFC3A0"/>
<path d="M344.689 371.664C344.689 351.217 361.264 334.642 381.711 334.642V334.642C402.158 334.642 418.733 351.217 418.733 371.664V432.519H344.689V371.664Z" fill="#CB5CFF"/>
<rect x="257.816" y="476.951" width="42.4041" height="30.6298" rx="15.3149" transform="rotate(180 257.816 476.951)" fill="#FFC3A0"/>
<rect x="197.42" y="456.632" width="78.3888" height="78.3888" rx="30" fill="#FFD9C2"/>
<path d="M332.712 436.126C332.712 369.852 386.438 316.126 452.712 316.126H458.89C492.027 316.126 518.89 342.989 518.89 376.126V672.692H332.712V436.126Z" fill="#B519FF"/>
<path d="M221.377 275.217C210.011 266.698 196.543 261.495 182.426 260.172C179.495 259.898 176.894 262.05 176.62 264.982C176.542 265.817 176.665 266.62 176.942 267.354L101.758 295.623C101.482 294.888 101.046 294.201 100.438 293.626C98.2986 291.601 94.9251 291.695 92.9002 293.832C83.1537 304.127 76.4489 316.914 73.5089 330.809C70.4887 345.091 71.6187 359.894 76.7782 373.618C84.0548 392.973 99.8522 407.738 121.262 415.194C142.326 422.531 166.362 421.896 188.946 413.405C211.528 404.916 230.031 389.558 241.045 370.162C252.24 350.448 254.398 328.931 247.121 309.576C241.961 295.852 233.06 283.971 221.377 275.217Z" fill="#F92544"/>
<path fill-rule="evenodd" clip-rule="evenodd" d="M170.075 336.336C171.095 337.174 171.243 338.679 170.405 339.699L152.385 361.64C151.548 362.659 150.043 362.807 149.023 361.97C148.003 361.132 147.856 359.627 148.693 358.607L166.713 336.666C167.55 335.647 169.056 335.499 170.075 336.336Z" fill="white"/>
<path d="M169.755 345.87C170.198 350.38 166.9 354.396 162.389 354.838C157.879 355.281 153.863 351.983 153.421 347.472C152.978 342.962 156.276 338.946 160.787 338.504C165.297 338.061 169.313 341.359 169.755 345.87Z" fill="#FF0065"/>
<path fill-rule="evenodd" clip-rule="evenodd" d="M161.923 350.083C163.807 349.898 165.185 348.221 165 346.336C164.815 344.452 163.138 343.074 161.253 343.259C159.369 343.444 157.991 345.121 158.176 347.006C158.361 348.89 160.038 350.268 161.923 350.083ZM162.389 354.838C166.9 354.396 170.198 350.38 169.755 345.87C169.313 341.359 165.297 338.061 160.787 338.504C156.276 338.946 152.978 342.962 153.421 347.472C153.863 351.983 157.879 355.281 162.389 354.838Z" fill="white"/>
<path fill-rule="evenodd" clip-rule="evenodd" d="M157.768 289.478C160.041 289.255 162.064 290.916 162.287 293.189L162.677 297.166C162.9 299.439 161.238 301.462 158.965 301.685C156.692 301.908 154.669 300.247 154.446 297.974L154.056 293.997C153.833 291.724 155.495 289.701 157.768 289.478Z" fill="white"/>
<path fill-rule="evenodd" clip-rule="evenodd" d="M167.257 386.193C169.53 385.97 171.553 387.631 171.776 389.904L172.166 393.881C172.389 396.154 170.727 398.177 168.454 398.4C166.182 398.623 164.158 396.961 163.935 394.689L163.545 390.712C163.322 388.439 164.984 386.416 167.257 386.193Z" fill="white"/>
<path fill-rule="evenodd" clip-rule="evenodd" d="M217.572 338.595C217.795 340.868 216.134 342.892 213.861 343.115L209.884 343.505C207.611 343.728 205.588 342.066 205.365 339.793C205.142 337.52 206.803 335.497 209.076 335.274L213.053 334.884C215.326 334.661 217.349 336.322 217.572 338.595Z" fill="white"/>
<path fill-rule="evenodd" clip-rule="evenodd" d="M120.858 348.085C121.081 350.358 119.419 352.381 117.146 352.604L113.169 352.994C110.896 353.217 108.873 351.556 108.65 349.283C108.427 347.01 110.089 344.986 112.362 344.763L116.338 344.373C118.611 344.15 120.635 345.812 120.858 348.085Z" fill="white"/>
<path fill-rule="evenodd" clip-rule="evenodd" d="M205.399 378.67C203.95 380.435 201.344 380.691 199.579 379.241L196.491 376.705C194.726 375.256 194.471 372.65 195.92 370.885C197.37 369.12 199.976 368.865 201.74 370.314L204.828 372.85C206.593 374.3 206.849 376.905 205.399 378.67Z" fill="white"/>
<path fill-rule="evenodd" clip-rule="evenodd" d="M130.302 316.993C128.852 318.757 126.247 319.013 124.482 317.564L121.394 315.028C119.629 313.578 119.373 310.972 120.823 309.207C122.272 307.442 124.878 307.187 126.643 308.636L129.731 311.172C131.496 312.622 131.751 315.228 130.302 316.993Z" fill="white"/>
<path fill-rule="evenodd" clip-rule="evenodd" d="M128.38 386.227C126.615 384.778 126.359 382.172 127.809 380.407L130.345 377.319C131.794 375.554 134.4 375.299 136.165 376.748C137.93 378.198 138.185 380.803 136.736 382.568L134.2 385.656C132.75 387.421 130.144 387.677 128.38 386.227Z" fill="white"/>
<path fill-rule="evenodd" clip-rule="evenodd" d="M190.057 311.13C188.293 309.68 188.037 307.074 189.486 305.309L192.022 302.222C193.472 300.457 196.078 300.201 197.843 301.651C199.608 303.1 199.863 305.706 198.414 307.471L195.878 310.559C194.428 312.323 191.822 312.579 190.057 311.13Z" fill="white"/>
<path d="M183.773 253.194C183.273 253.111 171.398 251.182 160.176 255.401C156.918 256.626 153.99 258.265 151.475 260.274C150.101 261.372 148.813 262.606 147.615 263.973L142.689 250.87C139.992 243.696 131.963 240.054 124.789 242.752C117.616 245.448 113.975 253.477 116.672 260.651L121.599 273.756C119.797 273.518 118.014 273.438 116.256 273.518C113.039 273.664 109.756 274.36 106.498 275.584C95.2754 279.803 87.6136 289.074 87.2923 289.466C85.5741 291.572 85.7134 294.633 87.6159 296.573C88.1767 297.145 101.545 310.573 117.908 309.829C118.135 309.818 118.362 309.806 118.59 309.79C118.524 310.007 118.462 310.226 118.402 310.445C114.052 326.237 124.185 342.246 124.619 342.919C126.09 345.204 129.042 346.015 131.477 344.809C132.194 344.452 149.097 335.888 153.446 320.095C153.506 319.875 153.564 319.656 153.619 319.435C153.806 319.565 153.995 319.691 154.184 319.817C167.859 328.833 186.214 324.143 186.99 323.938C187.168 323.892 187.343 323.835 187.512 323.772C189.837 322.898 191.276 320.505 190.906 318C190.787 317.208 187.867 298.486 174.19 289.468C174 289.344 173.809 289.221 173.616 289.1C173.797 288.962 173.977 288.823 174.154 288.681C186.954 278.462 188.167 259.554 188.212 258.754C188.366 256.04 186.454 253.644 183.773 253.194Z" fill="#00CE6B"/>
<path d="M211.804 163.265C213.496 155.603 213.04 147.641 210.485 140.237C209.954 138.7 208.278 137.883 206.74 138.414C206.303 138.565 205.926 138.81 205.621 139.117L174.245 107.744C174.552 107.437 174.798 107.061 174.948 106.624C175.479 105.086 174.662 103.41 173.125 102.879C165.722 100.325 157.76 99.8691 150.098 101.561C142.224 103.3 135.035 107.246 129.308 112.973C121.232 121.049 117.408 132.366 118.542 144.837C119.657 157.108 125.461 169.055 134.885 178.479C144.308 187.902 156.256 193.707 168.527 194.822C180.999 195.956 192.315 192.132 200.392 184.055C206.119 178.328 210.065 171.139 211.804 163.265V163.265Z" fill="#F92544"/>
<path fill-rule="evenodd" clip-rule="evenodd" d="M169.351 151.402C169.162 152.106 168.438 152.523 167.734 152.335L152.585 148.275C151.881 148.087 151.463 147.363 151.652 146.659C151.841 145.955 152.564 145.537 153.268 145.726L168.418 149.785C169.122 149.974 169.539 150.698 169.351 151.402Z" fill="white"/>
<path d="M164.482 153.415C162.314 154.667 159.541 153.924 158.289 151.756C157.038 149.588 157.78 146.815 159.949 145.564C162.117 144.312 164.889 145.055 166.141 147.223C167.393 149.391 166.65 152.163 164.482 153.415Z" fill="#FF0065"/>
<path fill-rule="evenodd" clip-rule="evenodd" d="M160.575 150.436C161.098 151.342 162.256 151.653 163.162 151.13C164.068 150.607 164.378 149.448 163.855 148.543C163.332 147.637 162.174 147.326 161.268 147.849C160.362 148.372 160.052 149.531 160.575 150.436ZM158.289 151.756C159.541 153.924 162.314 154.667 164.482 153.415C166.65 152.163 167.393 149.391 166.141 147.223C164.889 145.055 162.117 144.312 159.949 145.564C157.78 146.815 157.038 149.588 158.289 151.756Z" fill="white"/>
<path fill-rule="evenodd" clip-rule="evenodd" d="M190.116 134.518C190.747 135.611 190.372 137.008 189.28 137.639L187.368 138.742C186.276 139.373 184.879 138.999 184.248 137.906C183.617 136.814 183.991 135.416 185.084 134.786L186.995 133.682C188.088 133.051 189.485 133.426 190.116 134.518Z" fill="white"/>
<path fill-rule="evenodd" clip-rule="evenodd" d="M143.627 161.359C144.257 162.451 143.883 163.848 142.79 164.479L140.879 165.583C139.786 166.213 138.389 165.839 137.758 164.747C137.128 163.654 137.502 162.257 138.595 161.626L140.506 160.523C141.599 159.892 142.996 160.266 143.627 161.359Z" fill="white"/>
<path fill-rule="evenodd" clip-rule="evenodd" d="M179.051 175.811C177.959 176.442 176.562 176.067 175.931 174.975L174.827 173.063C174.197 171.971 174.571 170.574 175.664 169.943C176.756 169.312 178.153 169.686 178.784 170.779L179.888 172.691C180.518 173.783 180.144 175.18 179.051 175.811Z" fill="white"/>
<path fill-rule="evenodd" clip-rule="evenodd" d="M152.211 129.322C151.118 129.953 149.721 129.578 149.09 128.486L147.987 126.574C147.356 125.482 147.73 124.085 148.823 123.454C149.915 122.823 151.312 123.197 151.943 124.29L153.047 126.202C153.678 127.294 153.303 128.691 152.211 129.322Z" fill="white"/>
<path fill-rule="evenodd" clip-rule="evenodd" d="M156.113 178.831C154.895 178.504 154.172 177.252 154.498 176.033L155.069 173.901C155.396 172.682 156.648 171.959 157.867 172.286C159.086 172.612 159.809 173.865 159.482 175.083L158.911 177.216C158.584 178.434 157.332 179.157 156.113 178.831Z" fill="white"/>
<path fill-rule="evenodd" clip-rule="evenodd" d="M170.007 126.979C168.789 126.652 168.065 125.4 168.392 124.181L168.963 122.049C169.29 120.83 170.542 120.107 171.761 120.434C172.98 120.76 173.703 122.013 173.376 123.231L172.805 125.363C172.478 126.582 171.226 127.305 170.007 126.979Z" fill="white"/>
<path fill-rule="evenodd" clip-rule="evenodd" d="M134.739 141.809C135.065 140.59 136.318 139.867 137.536 140.193L139.668 140.765C140.887 141.091 141.61 142.344 141.284 143.562C140.957 144.781 139.705 145.504 138.486 145.178L136.354 144.606C135.135 144.28 134.412 143.027 134.739 141.809Z" fill="white"/>
<path fill-rule="evenodd" clip-rule="evenodd" d="M186.591 155.702C186.917 154.484 188.17 153.761 189.389 154.087L191.521 154.659C192.739 154.985 193.462 156.238 193.136 157.456C192.809 158.675 191.557 159.398 190.338 159.071L188.206 158.5C186.988 158.174 186.264 156.921 186.591 155.702Z" fill="white"/>
<path d="M214.303 139.323C214.231 139.052 212.491 132.638 207.808 127.955C206.449 126.595 204.956 125.497 203.372 124.69C202.506 124.249 201.591 123.882 200.63 123.591L206.098 118.124C209.091 115.13 209.091 110.26 206.098 107.266C203.105 104.273 198.235 104.273 195.241 107.267L189.772 112.736C189.481 111.775 189.114 110.86 188.674 109.994C187.866 108.409 186.767 106.916 185.407 105.556C180.724 100.873 174.312 99.1337 174.042 99.0616C172.59 98.6776 171.082 99.4461 170.541 100.846C170.381 101.259 166.675 111.047 170.783 119.11C170.84 119.221 170.898 119.333 170.959 119.444C170.834 119.46 170.71 119.479 170.586 119.498C161.649 120.913 155.908 129.664 155.668 130.036C154.854 131.297 155.12 132.967 156.282 133.917C156.625 134.196 164.79 140.746 173.727 139.33C173.851 139.31 173.975 139.289 174.099 139.267C174.076 139.39 174.055 139.514 174.035 139.638C172.62 148.575 179.167 156.738 179.447 157.082C179.511 157.161 179.579 157.236 179.65 157.306C180.62 158.277 182.152 158.455 183.328 157.697C183.699 157.457 192.451 151.716 193.867 142.778C193.887 142.654 193.905 142.53 193.922 142.405C194.033 142.465 194.143 142.523 194.256 142.58C202.317 146.688 212.106 142.984 212.518 142.824C213.919 142.283 214.688 140.774 214.303 139.323Z" fill="#00CE6B"/>
<path d="M75.3055 197.216C70.0351 194.478 64.1244 193.251 58.2107 193.669C56.9831 193.756 56.0572 194.821 56.1442 196.049C56.1691 196.399 56.2746 196.722 56.4391 197.006L27.3548 213.799C27.1908 213.515 26.9638 213.261 26.6738 213.065C25.6532 212.376 24.268 212.645 23.5786 213.665C20.2609 218.577 18.368 224.309 18.1038 230.242C17.8328 236.34 19.3094 242.369 22.3746 247.678C26.6974 255.165 34.2219 260.177 43.5624 261.791C52.7521 263.38 62.6241 261.477 71.3603 256.433C80.0961 251.39 86.6805 243.792 89.8995 235.039C93.1719 226.142 92.5931 217.119 88.2703 209.632C85.2051 204.323 80.7221 200.03 75.3055 197.216V197.216Z" fill="#F92544"/>
<path fill-rule="evenodd" clip-rule="evenodd" d="M58.3151 225.93C58.7929 226.206 58.9566 226.817 58.6808 227.294L52.7451 237.575C52.4693 238.053 51.8584 238.217 51.3806 237.941C50.9029 237.665 50.7392 237.054 51.015 236.576L56.9507 226.296C57.2265 225.818 57.8374 225.654 58.3151 225.93Z" fill="white"/>
<path d="M58.8338 229.885C59.3243 231.715 58.238 233.597 56.4076 234.087C54.5772 234.577 52.6957 233.491 52.2052 231.661C51.7148 229.83 52.801 227.949 54.6315 227.458C56.4619 226.968 58.3434 228.054 58.8338 229.885Z" fill="#FF0065"/>
<path fill-rule="evenodd" clip-rule="evenodd" d="M55.8905 232.157C56.6553 231.952 57.1091 231.166 56.9042 230.402C56.6993 229.637 55.9132 229.183 55.1485 229.388C54.3838 229.593 53.93 230.379 54.1349 231.144C54.3398 231.908 55.1258 232.362 55.8905 232.157ZM56.4076 234.087C58.238 233.597 59.3243 231.715 58.8338 229.885C58.3434 228.054 56.4619 226.968 54.6315 227.458C52.801 227.949 51.7148 229.83 52.2052 231.661C52.6957 233.491 54.5772 234.577 56.4076 234.087Z" fill="white"/>
<path fill-rule="evenodd" clip-rule="evenodd" d="M50.0395 207.441C50.9618 207.194 51.9099 207.741 52.1571 208.663L52.5895 210.277C52.8366 211.199 52.2893 212.148 51.3669 212.395C50.4445 212.642 49.4964 212.094 49.2493 211.172L48.8169 209.558C48.5697 208.636 49.1171 207.688 50.0395 207.441Z" fill="white"/>
<path fill-rule="evenodd" clip-rule="evenodd" d="M60.5558 246.688C61.4782 246.441 62.4263 246.989 62.6734 247.911L63.1058 249.525C63.353 250.447 62.8056 251.395 61.8832 251.642C60.9608 251.889 60.0128 251.342 59.7656 250.42L59.3332 248.806C59.0861 247.884 59.6334 246.936 60.5558 246.688Z" fill="white"/>
<path fill-rule="evenodd" clip-rule="evenodd" d="M78.0621 223.62C78.3092 224.542 77.7618 225.49 76.8395 225.737L75.2257 226.17C74.3033 226.417 73.3552 225.869 73.1081 224.947C72.8609 224.025 73.4083 223.077 74.3307 222.829L75.9445 222.397C76.8668 222.15 77.8149 222.697 78.0621 223.62Z" fill="white"/>
<path fill-rule="evenodd" clip-rule="evenodd" d="M38.8146 234.136C39.0618 235.059 38.5144 236.007 37.592 236.254L35.9783 236.686C35.0559 236.933 34.1078 236.386 33.8607 235.464C33.6135 234.541 34.1609 233.593 35.0833 233.346L36.697 232.914C37.6194 232.666 38.5675 233.214 38.8146 234.136Z" fill="white"/>
<path fill-rule="evenodd" clip-rule="evenodd" d="M75.7764 240.982C75.2989 241.809 74.2415 242.092 73.4145 241.615L71.9676 240.779C71.1406 240.302 70.8573 239.244 71.3348 238.417C71.8122 237.59 72.8697 237.307 73.6966 237.785L75.1435 238.62C75.9705 239.097 76.2538 240.155 75.7764 240.982Z" fill="white"/>
<path fill-rule="evenodd" clip-rule="evenodd" d="M40.588 220.666C40.1105 221.493 39.0531 221.776 38.2261 221.298L36.7792 220.463C35.9522 219.986 35.6689 218.928 36.1464 218.101C36.6238 217.274 37.6813 216.991 38.5082 217.468L39.9551 218.304C40.7821 218.781 41.0654 219.839 40.588 220.666Z" fill="white"/>
<path fill-rule="evenodd" clip-rule="evenodd" d="M44.5212 249.357C43.6942 248.879 43.4109 247.822 43.8883 246.995L44.7237 245.548C45.2011 244.721 46.2586 244.438 47.0856 244.915C47.9125 245.393 48.1959 246.45 47.7184 247.277L46.8831 248.724C46.4056 249.551 45.3482 249.834 44.5212 249.357Z" fill="white"/>
<path fill-rule="evenodd" clip-rule="evenodd" d="M64.8373 214.168C64.0103 213.691 63.7269 212.633 64.2044 211.806L65.0397 210.359C65.5172 209.532 66.5746 209.249 67.4016 209.726C68.2286 210.204 68.5119 211.261 68.0345 212.088L67.1991 213.535C66.7217 214.362 65.6642 214.646 64.8373 214.168Z" fill="white"/>
<path d="M58.2904 190.698C58.0784 190.698 53.0482 190.713 48.707 193.22C47.4466 193.947 46.3509 194.823 45.4504 195.824C44.9584 196.37 44.5113 196.967 44.1105 197.613L41.1841 192.544C39.5818 189.769 36.0212 188.815 33.246 190.417C30.4714 192.019 29.5173 195.58 31.1196 198.355L34.0466 203.425C33.2873 203.449 32.5462 203.538 31.8266 203.691C30.5094 203.971 29.2025 204.482 27.9421 205.209C23.6009 207.716 21.0732 212.063 20.9674 212.247C20.4024 213.233 20.6688 214.486 21.586 215.156C21.8564 215.354 28.2874 219.981 34.9866 218.557C35.0795 218.537 35.1722 218.516 35.2652 218.494C35.2527 218.588 35.2422 218.683 35.2323 218.777C34.516 225.588 39.7888 231.5 40.0138 231.748C40.7762 232.59 42.0495 232.723 42.9715 232.06C43.2429 231.863 49.631 227.177 50.347 220.365C50.3567 220.271 50.3658 220.176 50.3734 220.081C50.4593 220.122 50.5457 220.162 50.6326 220.201C56.8889 222.986 64.1401 219.798 64.4463 219.661C64.5168 219.63 64.5849 219.595 64.6502 219.557C65.5496 219.038 65.9802 217.952 65.6563 216.944C65.5534 216.626 63.0705 209.102 56.8131 206.316C56.7266 206.277 56.6393 206.24 56.5515 206.203C56.6168 206.134 56.6813 206.064 56.7449 205.993C61.3272 200.904 60.5368 193.022 60.5007 192.689C60.3793 191.559 59.4268 190.701 58.2904 190.698Z" fill="#00CE6B"/>
<rect x="415.259" y="240.165" width="51.653" height="95.5225" rx="25.8265" fill="#FFC3A0"/>
<circle cx="443.901" cy="116.448" r="95.423" fill="#593029"/>
<circle cx="546.78" cy="157.082" r="29.2204" fill="#FFD9C2"/>
<circle cx="546.78" cy="157.082" r="18.2628" fill="#FFC3A0"/>
<circle cx="342.09" cy="157.082" r="29.2204" fill="#FFD9C2"/>
<circle cx="342.09" cy="157.082" r="18.2628" fill="#FFC9A9"/>
<rect x="352.587" y="31.0693" width="182.628" height="273.942" rx="91.3139" fill="#FFD9C2"/>
<path fill-rule="evenodd" clip-rule="evenodd" d="M378.733 191.11C378.733 216.416 399.248 236.931 424.554 236.931C449.861 236.931 470.376 216.416 470.376 191.11H378.733Z" fill="#232323"/>
<path fill-rule="evenodd" clip-rule="evenodd" d="M458.503 221.894C452.677 216.975 445.146 214.01 436.923 214.01C423.52 214.01 411.957 221.888 406.612 233.266C412.127 235.619 418.198 236.92 424.573 236.92C438.024 236.92 450.121 231.125 458.503 221.894Z" fill="#FF0065"/>
<path fill-rule="evenodd" clip-rule="evenodd" d="M514.489 163.958C501.053 187.229 471.297 195.202 448.026 181.767C439.86 177.052 428.415 176.871 424.555 182.033C420.694 176.871 409.249 177.052 401.084 181.767C377.813 195.202 348.056 187.229 334.621 163.958C333.836 162.6 331.776 162.767 331.429 164.296C328.816 175.823 330.37 188.327 336.746 199.37C350.182 222.641 379.938 230.615 403.209 217.179C413.479 211.25 420.769 202.143 424.555 191.817C428.341 202.143 435.631 211.25 445.9 217.179C469.171 230.615 498.928 222.641 512.363 199.37C518.739 188.327 520.294 175.823 517.68 164.296C517.333 162.767 515.273 162.6 514.489 163.958Z" fill="#593029"/>
<circle cx="355.257" cy="80.3759" r="30.2526" fill="#593029"/>
<circle cx="458.648" cy="59.4086" r="30.2526" fill="#593029"/>
<circle cx="445.512" cy="30.2871" r="30.2526" fill="#593029"/>
<circle cx="487.307" cy="51.6739" r="30.2526" fill="#593029"/>
<circle cx="504.962" cy="82.3768" r="30.2526" fill="#593029"/>
<circle cx="395.434" cy="50.1234" r="42.1805" fill="#593029"/>
<rect width="72.3474" height="286.944" rx="36.1737" transform="matrix(-1 8.74228e-08 8.74228e-08 1 536.736 379.715)" fill="#FFD9C2"/>
<rect width="72.3474" height="286.944" rx="36.1737" transform="matrix(0.258819 -0.965926 -0.965926 -0.258819 525.026 681.25)" fill="#FFD9C2"/>
<path d="M442.381 390.998C442.381 358.865 468.43 332.816 500.563 332.816V332.816C532.696 332.816 558.745 358.865 558.745 390.998V486.634H442.381V390.998Z" fill="#CB5CFF"/>
<rect x="303.203" y="544.125" width="42.4041" height="30.6298" rx="15.3149" transform="rotate(180 303.203 544.125)" fill="#FFC3A0"/>
<rect x="210.941" y="524.527" width="123.191" height="123.191" rx="45" fill="#FFD9C2"/>
<circle cx="385.984" cy="150.352" r="9.45029" fill="#232323"/>
<circle cx="379.21" cy="146.079" r="4.27289" fill="white"/>
<circle cx="456.558" cy="150.352" r="9.45029" fill="#232323"/>
<circle cx="449.785" cy="146.079" r="4.27289" fill="white"/>
<path d="M451.651 120.345C458.321 116.751 473.74 113.792 482.056 130.71" stroke="#593029" stroke-width="10" stroke-linecap="round"/>
<path d="M366.554 130.71C369.99 123.957 380.98 112.744 397.45 121.914" stroke="#593029" stroke-width="10" stroke-linecap="round"/>
<path d="M408.607 141.825H440.502V182.749C440.502 191.557 433.362 198.697 424.555 198.697V198.697C415.747 198.697 408.607 191.557 408.607 182.749V141.825Z" fill="#FFC3A0"/>
</svg>
