<svg width="240" height="129" viewBox="0 0 240 129" fill="none" xmlns="http://www.w3.org/2000/svg">
<path d="M61.361 101.526C61.361 96.0814 56.9469 91.6674 51.502 91.6674V91.6674C46.057 91.6674 41.643 96.0814 41.643 101.526V118.273C41.643 123.718 46.057 128.132 51.502 128.132V128.132C56.9469 128.132 61.361 123.718 61.361 118.273V101.526Z" fill="#FFC3A0"/>
<path d="M14.0008 44.4394C14.0008 64.5573 30.3096 80.8661 50.4275 80.8661C70.5454 80.8661 86.8542 64.5573 86.8542 44.4394C86.8542 24.3215 70.5454 8.0127 50.4275 8.0127C30.3096 8.0127 14.0008 24.3215 14.0008 44.4394Z" fill="#593029"/>
<path d="M-1.37093e-05 59.9513C-1.37093e-05 66.1118 4.99406 71.1059 11.1546 71.1059C17.3151 71.1059 22.3092 66.1118 22.3092 59.9513C22.3092 53.7908 17.3151 48.7967 11.1546 48.7967C4.99406 48.7967 -1.37093e-05 53.7908 -1.37093e-05 59.9513Z" fill="#FFD9C2"/>
<path d="M4.18285 59.9512C4.18285 63.8016 7.30415 66.9229 11.1545 66.9229C15.0048 66.9229 18.1261 63.8016 18.1261 59.9512C18.1261 56.1009 15.0048 52.9796 11.1545 52.9796C7.30415 52.9796 4.18285 56.1009 4.18285 59.9512Z" fill="#FFC3A0"/>
<path d="M78.1379 59.9513C78.1379 66.1118 83.132 71.1059 89.2925 71.1059C95.453 71.1059 100.447 66.1118 100.447 59.9513C100.447 53.7908 95.453 48.7967 89.2925 48.7967C83.132 48.7967 78.1379 53.7908 78.1379 59.9513Z" fill="#FFD9C2"/>
<path d="M82.3208 59.9512C82.3208 63.8016 85.4421 66.9229 89.2924 66.9229C93.1428 66.9229 96.2641 63.8016 96.2641 59.9512C96.2641 56.1009 93.1428 52.9796 89.2924 52.9796C85.4421 52.9796 82.3208 56.1009 82.3208 59.9512Z" fill="#FFC9A9"/>
<path d="M85.2857 46.7054C85.2857 27.4538 69.6792 11.8473 50.4276 11.8473V11.8473C31.176 11.8473 15.5695 27.4538 15.5695 46.7054V81.5634C15.5695 100.815 31.176 116.422 50.4276 116.422V116.422C69.6792 116.422 85.2857 100.815 85.2857 81.5635V46.7054Z" fill="#FFD9C2"/>
<path fill-rule="evenodd" clip-rule="evenodd" d="M16.3099 62.576C21.4388 71.4594 32.798 74.5031 41.6814 69.3742C44.7985 67.5746 49.1676 67.5056 50.6413 69.4758C52.1149 67.5056 56.4841 67.5746 59.6012 69.3742C68.4846 74.5031 79.8439 71.4594 84.9727 62.576C85.272 62.0575 86.0585 62.1213 86.1909 62.7051C87.1886 67.1054 86.5952 71.8787 84.1612 76.0943C79.0324 84.9778 67.6732 88.0215 58.7897 82.8926C54.8695 80.6293 52.0866 77.1527 50.6413 73.211C49.196 77.1527 46.4131 80.6293 42.4929 82.8926C33.6094 88.0215 22.2502 84.9778 17.1213 76.0943C14.6874 71.8787 14.094 67.1054 15.0917 62.7051C15.2241 62.1212 16.0106 62.0575 16.3099 62.576Z" fill="#593029"/>
<path d="M69.2783 30.6692C69.2783 37.0474 74.4488 42.2178 80.8269 42.2178C87.2051 42.2178 92.3756 37.0474 92.3756 30.6692C92.3756 24.2911 87.2051 19.1206 80.8269 19.1206C74.4488 19.1206 69.2783 24.2911 69.2783 30.6692Z" fill="#593029"/>
<path d="M29.8099 22.6655C29.8099 29.0436 34.9804 34.2141 41.3586 34.2141C47.7367 34.2141 52.9072 29.0436 52.9072 22.6655C52.9072 16.2874 47.7367 11.1169 41.3586 11.1169C34.9804 11.1169 29.8099 16.2874 29.8099 22.6655Z" fill="#593029"/>
<path d="M58.7438 11.5486C58.7438 17.9267 53.5733 23.0972 47.1951 23.0972C40.817 23.0972 35.6465 17.9267 35.6465 11.5486C35.6465 5.17049 40.817 0 47.1951 0C53.5733 0 58.7438 5.17049 58.7438 11.5486Z" fill="#593029"/>
<path d="M18.8695 19.7127C18.8695 26.0909 24.04 31.2614 30.4181 31.2614C36.7963 31.2614 41.9668 26.0909 41.9668 19.7127C41.9668 13.3346 36.7963 8.16412 30.4181 8.16412C24.04 8.16412 18.8695 13.3346 18.8695 19.7127Z" fill="#593029"/>
<path d="M12.13 31.433C12.13 37.8111 17.3005 42.9816 23.6786 42.9816C30.0567 42.9816 35.2272 37.8111 35.2272 31.433C35.2272 25.0548 30.0567 19.8843 23.6786 19.8843C17.3005 19.8843 12.13 25.0548 12.13 31.433Z" fill="#593029"/>
<path d="M49.3875 19.1208C49.3875 28.0137 56.5966 35.2228 65.4895 35.2228C74.3824 35.2228 81.5915 28.0137 81.5915 19.1208C81.5915 10.228 74.3824 3.01886 65.4895 3.01886C56.5966 3.01886 49.3875 10.228 49.3875 19.1208Z" fill="#593029"/>
<path fill-rule="evenodd" clip-rule="evenodd" d="M32.5596 46.9187C34.2544 46.7598 35.9014 47.3609 36.8575 47.9616C37.7501 48.5225 38.9283 48.2535 39.4891 47.3609C40.05 46.4683 39.781 45.2901 38.8884 44.7293C37.3954 43.7913 34.9191 42.8633 32.2032 43.118C29.3599 43.3846 26.4722 44.9329 24.3752 48.5649C23.8481 49.4778 24.1609 50.6452 25.0738 51.1723C25.9868 51.6993 27.1541 51.3865 27.6812 50.4736C29.1823 47.8737 30.9924 47.0657 32.5596 46.9187Z" fill="#593029"/>
<path fill-rule="evenodd" clip-rule="evenodd" d="M69.758 47.359C71.3052 48.0688 72.4309 49.4129 72.9586 50.4112C73.4512 51.3432 74.606 51.6993 75.538 51.2067C76.47 50.7141 76.8261 49.5593 76.3335 48.6273C75.5096 47.0685 73.829 45.0267 71.3497 43.8893C68.7539 42.6985 65.479 42.5955 61.8469 44.6925C60.934 45.2196 60.6212 46.3869 61.1483 47.2998C61.6754 48.2127 62.8427 48.5255 63.7556 47.9984C66.3556 46.4973 68.3272 46.7027 69.758 47.359Z" fill="#593029"/>
<path fill-rule="evenodd" clip-rule="evenodd" d="M65.2268 56.9369C65.9334 57.261 66.4475 57.8748 66.6884 58.3307C66.9134 58.7563 67.4407 58.919 67.8663 58.694C68.2919 58.4691 68.4546 57.9417 68.2296 57.5161C67.8534 56.8042 67.0859 55.8718 65.9537 55.3524C64.7683 54.8086 63.2728 54.7616 61.6141 55.7192C61.1973 55.9599 61.0544 56.493 61.2951 56.9099C61.5358 57.3268 62.0689 57.4696 62.4858 57.2289C63.6731 56.5434 64.5735 56.6372 65.2268 56.9369Z" fill="#FFC9A9"/>
<path fill-rule="evenodd" clip-rule="evenodd" d="M35.7618 56.9369C35.0553 57.261 34.5412 57.8748 34.3002 58.3307C34.0753 58.7563 33.5479 58.919 33.1223 58.694C32.6967 58.4691 32.534 57.9417 32.759 57.5161C33.1353 56.8042 33.9027 55.8718 35.0349 55.3524C36.2203 54.8086 37.7159 54.7616 39.3745 55.7192C39.7914 55.9599 39.9342 56.493 39.6935 56.9099C39.4528 57.3268 38.9197 57.4696 38.5028 57.2289C37.3155 56.5434 36.4152 56.6372 35.7618 56.9369Z" fill="#FFC9A9"/>
<path d="M56.806 54.1271H44.6301V69.7495C44.6301 73.1117 47.3558 75.8374 50.718 75.8374V75.8374C54.0803 75.8374 56.806 73.1117 56.806 69.7494V54.1271Z" fill="#FFC3A0"/>
<path fill-rule="evenodd" clip-rule="evenodd" d="M190.841 86.8427C191.238 87.5306 191.003 88.4102 190.315 88.8073L175.512 97.3539C174.824 97.751 173.944 97.5153 173.547 96.8274C173.15 96.1395 173.386 95.2599 174.073 94.8628L188.877 86.3162C189.564 85.9191 190.444 86.1548 190.841 86.8427Z" fill="#B519FF"/>
<path d="M188.641 92.1468C187.935 94.7824 185.226 96.3465 182.59 95.6403C179.954 94.9341 178.39 92.225 179.097 89.5894C179.803 86.9538 182.512 85.3898 185.147 86.096C187.783 86.8022 189.347 89.5112 188.641 92.1468Z" fill="white"/>
<path fill-rule="evenodd" clip-rule="evenodd" d="M183.335 92.8618C184.436 93.1569 185.567 92.5034 185.862 91.4023C186.157 90.3013 185.504 89.1695 184.403 88.8744C183.302 88.5794 182.17 89.2328 181.875 90.3339C181.58 91.435 182.233 92.5668 183.335 92.8618ZM182.59 95.6403C185.226 96.3465 187.935 94.7824 188.641 92.1468C189.347 89.5112 187.783 86.8022 185.147 86.096C182.512 85.3898 179.803 86.9538 179.097 89.5894C178.39 92.225 179.954 94.9341 182.59 95.6403Z" fill="#B519FF"/>
<path fill-rule="evenodd" clip-rule="evenodd" d="M193.833 57.829C195.161 58.1848 195.949 59.5499 195.593 60.878L194.97 63.2017C194.615 64.5298 193.249 65.3179 191.921 64.9621C190.593 64.6062 189.805 63.2411 190.161 61.913L190.784 59.5894C191.139 58.2613 192.505 57.4731 193.833 57.829Z" fill="#B519FF"/>
<path fill-rule="evenodd" clip-rule="evenodd" d="M178.69 114.34C180.018 114.696 180.807 116.061 180.451 117.39L179.828 119.713C179.472 121.041 178.107 121.829 176.779 121.474C175.451 121.118 174.663 119.753 175.019 118.424L175.641 116.101C175.997 114.773 177.362 113.985 178.69 114.34Z" fill="#B519FF"/>
<path fill-rule="evenodd" clip-rule="evenodd" d="M217.128 98.1781C216.772 99.5062 215.407 100.294 214.079 99.9385L211.755 99.3159C210.427 98.96 209.639 97.5949 209.995 96.2668C210.351 94.9387 211.716 94.1506 213.044 94.5064L215.368 95.129C216.696 95.4849 217.484 96.85 217.128 98.1781Z" fill="#B519FF"/>
<path fill-rule="evenodd" clip-rule="evenodd" d="M160.617 83.0358C160.261 84.3639 158.896 85.1521 157.568 84.7962L155.244 84.1736C153.916 83.8177 153.128 82.4526 153.484 81.1245C153.84 79.7964 155.205 79.0083 156.533 79.3641L158.856 79.9868C160.184 80.3426 160.973 81.7077 160.617 83.0358Z" fill="#B519FF"/>
<path fill-rule="evenodd" clip-rule="evenodd" d="M201.778 118.182C200.588 118.87 199.065 118.462 198.378 117.271L197.175 115.188C196.487 113.997 196.895 112.474 198.086 111.787C199.277 111.099 200.799 111.507 201.487 112.698L202.69 114.781C203.377 115.972 202.969 117.495 201.778 118.182Z" fill="#B519FF"/>
<path fill-rule="evenodd" clip-rule="evenodd" d="M172.526 67.5156C171.335 68.2031 169.813 67.7951 169.125 66.6044L167.922 64.5211C167.235 63.3304 167.643 61.8078 168.833 61.1203C170.024 60.4328 171.547 60.8408 172.234 62.0315L173.437 64.1149C174.125 65.3056 173.717 66.8282 172.526 67.5156Z" fill="#B519FF"/>
<path fill-rule="evenodd" clip-rule="evenodd" d="M156.775 106.123C156.087 104.933 156.495 103.41 157.686 102.723L159.769 101.52C160.96 100.832 162.483 101.24 163.17 102.431C163.858 103.622 163.45 105.144 162.259 105.832L160.176 107.035C158.985 107.722 157.462 107.314 156.775 106.123Z" fill="#B519FF"/>
<path fill-rule="evenodd" clip-rule="evenodd" d="M207.442 76.8713C206.754 75.6805 207.162 74.158 208.353 73.4705L210.436 72.2677C211.627 71.5802 213.149 71.9882 213.837 73.1789C214.524 74.3697 214.116 75.8922 212.926 76.5797L210.842 77.7825C209.652 78.47 208.129 78.062 207.442 76.8713Z" fill="#B519FF"/>
<path d="M127.738 20.55C127.738 25.0366 128.643 28.5908 130.454 31.2126C132.265 33.8343 135.157 35.1451 139.13 35.1451C143.076 35.1451 145.954 33.8343 147.765 31.2126C149.603 28.5908 150.522 25.0366 150.522 20.55C150.522 16.0903 149.603 12.5632 147.765 9.96849C145.954 7.34676 143.076 6.0359 139.13 6.0359C135.157 6.0359 132.265 7.34676 130.454 9.96849C128.643 12.5632 127.738 16.0903 127.738 20.55ZM143.63 20.55C143.63 23.1177 143.319 25.1042 142.698 26.5097C142.103 27.8881 140.914 28.5773 139.13 28.5773C137.319 28.5773 136.103 27.8881 135.481 26.5097C134.859 25.1042 134.549 23.1177 134.549 20.55C134.549 18.0093 134.859 16.0498 135.481 14.6714C136.103 13.2929 137.319 12.6037 139.13 12.6037C140.914 12.6037 142.103 13.2929 142.698 14.6714C143.319 16.0228 143.63 17.9823 143.63 20.55Z" fill="#B519FF"/>
<path d="M174.992 11.9145H162.099V17.712C162.667 17.0634 163.451 16.5633 164.451 16.212C165.478 15.8336 166.586 15.6444 167.775 15.6444C169.694 15.6444 171.302 16.0768 172.6 16.9417C173.897 17.7796 174.856 18.9148 175.478 20.3473C176.1 21.7798 176.411 23.3609 176.411 25.0907C176.411 28.226 175.532 30.7125 173.775 32.5505C172.019 34.3613 169.545 35.2668 166.356 35.2668C164.194 35.2668 162.315 34.8884 160.721 34.1316C159.126 33.3478 157.896 32.2667 157.031 30.8882C156.167 29.5098 155.707 27.9151 155.653 26.1043H162.424C162.559 27.0232 162.924 27.78 163.518 28.3746C164.14 28.9692 164.978 29.2665 166.032 29.2665C167.248 29.2665 168.154 28.8746 168.748 28.0908C169.37 27.307 169.681 26.2664 169.681 24.9691C169.681 23.7258 169.356 22.7663 168.708 22.0906C168.059 21.4149 167.153 21.077 165.991 21.077C165.099 21.077 164.356 21.2797 163.761 21.6852C163.167 22.0636 162.761 22.5636 162.545 23.1852H155.815V5.83319H174.992V11.9145Z" fill="#B519FF"/>
<path d="M187.583 11.7523V18.685H180.367V11.7523H187.583ZM187.583 28.253V35.1857H180.367V28.253H187.583Z" fill="#B519FF"/>
<path d="M191.124 20.55C191.124 25.0366 192.03 28.5908 193.841 31.2126C195.651 33.8343 198.543 35.1451 202.517 35.1451C206.463 35.1451 209.341 33.8343 211.152 31.2126C212.99 28.5908 213.909 25.0366 213.909 20.55C213.909 16.0903 212.99 12.5632 211.152 9.96849C209.341 7.34676 206.463 6.0359 202.517 6.0359C198.543 6.0359 195.651 7.34676 193.841 9.96849C192.03 12.5632 191.124 16.0903 191.124 20.55ZM207.017 20.55C207.017 23.1177 206.706 25.1042 206.084 26.5097C205.49 27.8881 204.3 28.5773 202.517 28.5773C200.706 28.5773 199.489 27.8881 198.868 26.5097C198.246 25.1042 197.935 23.1177 197.935 20.55C197.935 18.0093 198.246 16.0498 198.868 14.6714C199.489 13.2929 200.706 12.6037 202.517 12.6037C204.3 12.6037 205.49 13.2929 206.084 14.6714C206.706 16.0228 207.017 17.9823 207.017 20.55Z" fill="#B519FF"/>
<path d="M217.215 20.55C217.215 25.0366 218.121 28.5908 219.932 31.2126C221.743 33.8343 224.635 35.1451 228.608 35.1451C232.554 35.1451 235.432 33.8343 237.243 31.2126C239.081 28.5908 240 25.0366 240 20.55C240 16.0903 239.081 12.5632 237.243 9.96849C235.432 7.34676 232.554 6.0359 228.608 6.0359C224.635 6.0359 221.743 7.34676 219.932 9.96849C218.121 12.5632 217.215 16.0903 217.215 20.55ZM233.108 20.55C233.108 23.1177 232.797 25.1042 232.175 26.5097C231.581 27.8881 230.391 28.5773 228.608 28.5773C226.797 28.5773 225.58 27.8881 224.959 26.5097C224.337 25.1042 224.026 23.1177 224.026 20.55C224.026 18.0093 224.337 16.0498 224.959 14.6714C225.58 13.2929 226.797 12.6037 228.608 12.6037C230.391 12.6037 231.581 13.2929 232.175 14.6714C232.797 16.0228 233.108 17.9823 233.108 20.55Z" fill="#B519FF"/>
</svg>
