<svg width="175" height="38" viewBox="0 0 175 38" fill="none" xmlns="http://www.w3.org/2000/svg">
<path d="M34.7641 13.1667C33.2012 10.7178 30.9973 8.75251 28.39 7.4832C27.8488 7.21968 27.1959 7.44458 26.9324 7.98609C26.8575 8.14028 26.8231 8.303 26.8234 8.46343L10.3956 8.464C10.3956 8.30356 10.3615 8.14057 10.2865 7.98666C10.0227 7.44514 9.37019 7.22025 8.82868 7.48376C6.2219 8.75308 4.01807 10.7184 2.45514 13.167C0.849048 15.6837 0 18.5989 0 21.5975C0 25.8266 1.96161 29.7902 5.52364 32.7584C9.02802 35.679 13.6753 37.2873 18.6098 37.2873C23.5439 37.2873 28.1915 35.679 31.6959 32.7584C35.2579 29.7902 37.2195 25.8263 37.2195 21.5973C37.2195 18.5986 36.3705 15.6835 34.7641 13.1667V13.1667Z" fill="#F92544"/>
<path fill-rule="evenodd" clip-rule="evenodd" d="M20.544 21.1752C20.6789 21.4089 20.5988 21.7077 20.3651 21.8426L15.3363 24.7461C15.1026 24.881 14.8038 24.8009 14.6688 24.5672C14.5339 24.3335 14.614 24.0347 14.8477 23.8998L19.8765 20.9964C20.1102 20.8615 20.4091 20.9415 20.544 21.1752Z" fill="white"/>
<path d="M19.7965 22.9772C19.5566 23.8725 18.6363 24.4039 17.7409 24.164C16.8456 23.9241 16.3142 23.0037 16.5541 22.1084C16.794 21.213 17.7144 20.6817 18.6097 20.9216C19.5051 21.1615 20.0364 22.0818 19.7965 22.9772Z" fill="#FF0065"/>
<path fill-rule="evenodd" clip-rule="evenodd" d="M17.9938 23.2201C18.3679 23.3203 18.7524 23.0983 18.8526 22.7243C18.9529 22.3502 18.7309 21.9657 18.3568 21.8655C17.9827 21.7652 17.5983 21.9872 17.498 22.3613C17.3978 22.7354 17.6198 23.1198 17.9938 23.2201ZM17.7409 24.164C18.6363 24.4039 19.5566 23.8725 19.7965 22.9772C20.0364 22.0818 19.5051 21.1615 18.6097 20.9216C17.7144 20.6817 16.794 21.213 16.5541 22.1084C16.3142 23.0037 16.8456 23.9241 17.7409 24.164Z" fill="white"/>
<path fill-rule="evenodd" clip-rule="evenodd" d="M21.5603 11.3187C22.0115 11.4396 22.2792 11.9034 22.1583 12.3546L21.9468 13.144C21.8259 13.5951 21.3621 13.8629 20.911 13.742C20.4598 13.6211 20.192 13.1573 20.3129 12.7062L20.5245 11.9168C20.6453 11.4656 21.1091 11.1979 21.5603 11.3187Z" fill="white"/>
<path fill-rule="evenodd" clip-rule="evenodd" d="M16.4162 30.5167C16.8673 30.6376 17.1351 31.1014 17.0142 31.5526L16.8027 32.342C16.6818 32.7931 16.218 33.0609 15.7669 32.94C15.3157 32.8191 15.0479 32.3553 15.1688 31.9042L15.3803 31.1148C15.5012 30.6636 15.965 30.3959 16.4162 30.5167Z" fill="white"/>
<path fill-rule="evenodd" clip-rule="evenodd" d="M29.4742 25.026C29.3533 25.4772 28.8895 25.745 28.4383 25.6241L27.649 25.4126C27.1978 25.2917 26.93 24.8279 27.0509 24.3767C27.1718 23.9256 27.6356 23.6578 28.0867 23.7787L28.8761 23.9902C29.3273 24.1111 29.5951 24.5749 29.4742 25.026Z" fill="white"/>
<path fill-rule="evenodd" clip-rule="evenodd" d="M10.2762 19.882C10.1553 20.3332 9.69157 20.6009 9.2404 20.48L8.45101 20.2685C7.99984 20.1476 7.73209 19.6839 7.85298 19.2327C7.97387 18.7815 8.43763 18.5138 8.88881 18.6347L9.67819 18.8462C10.1294 18.9671 10.3971 19.4308 10.2762 19.882Z" fill="white"/>
<path fill-rule="evenodd" clip-rule="evenodd" d="M24.2595 31.8219C23.855 32.0555 23.3377 31.9169 23.1042 31.5124L22.6956 30.8046C22.462 30.4001 22.6006 29.8828 23.0051 29.6493C23.4097 29.4158 23.9269 29.5544 24.1605 29.9589L24.5691 30.6666C24.8026 31.0711 24.664 31.5884 24.2595 31.8219Z" fill="white"/>
<path fill-rule="evenodd" clip-rule="evenodd" d="M14.3219 14.6094C13.9174 14.8429 13.4002 14.7043 13.1666 14.2998L12.758 13.5921C12.5245 13.1876 12.6631 12.6703 13.0676 12.4368C13.4721 12.2032 13.9893 12.3418 14.2229 12.7463L14.6315 13.4541C14.8651 13.8586 14.7265 14.3759 14.3219 14.6094Z" fill="white"/>
<path fill-rule="evenodd" clip-rule="evenodd" d="M8.97099 27.7254C8.73744 27.3209 8.87604 26.8037 9.28055 26.5701L9.98829 26.1615C10.3928 25.928 10.9101 26.0666 11.1436 26.4711C11.3772 26.8756 11.2386 27.3929 10.834 27.6264L10.1263 28.035C9.72178 28.2686 9.20453 28.13 8.97099 27.7254Z" fill="white"/>
<path fill-rule="evenodd" clip-rule="evenodd" d="M26.1835 17.7877C25.95 17.3832 26.0886 16.8659 26.4931 16.6324L27.2008 16.2238C27.6053 15.9902 28.1226 16.1288 28.3561 16.5333C28.5897 16.9379 28.4511 17.4551 28.0466 17.6887L27.3388 18.0973C26.9343 18.3308 26.4171 18.1922 26.1835 17.7877Z" fill="white"/>
<path d="M29.1502 6.24435C29.0605 6.19238 26.9259 4.9685 24.4739 4.9685C23.762 4.9685 23.0836 5.07158 22.4575 5.27518C22.1153 5.38649 21.78 5.5299 21.4523 5.70538V2.84247C21.4523 1.27499 20.1773 0 18.6098 0C17.0426 0 15.7676 1.27499 15.7676 2.84247V5.70595C15.4399 5.53075 15.1043 5.38706 14.7621 5.27575C14.1357 5.07215 13.457 4.96907 12.7451 4.96907C10.2931 4.96907 8.1591 6.19238 8.06937 6.24435C7.5889 6.52377 7.39524 7.1198 7.61986 7.6281C7.68602 7.77803 9.27877 11.3108 12.4648 12.3461C12.5091 12.3603 12.5534 12.3743 12.5983 12.3876C12.5699 12.4245 12.5424 12.462 12.5151 12.4995C10.5458 15.2096 11.3335 19.0037 11.3682 19.1638C11.4852 19.707 11.992 20.0748 12.5449 20.0191C12.7079 20.0024 16.5601 19.5795 18.5294 16.8691C18.5567 16.8313 18.5837 16.7936 18.6101 16.7552C18.6365 16.7936 18.6635 16.8313 18.6907 16.8691C20.6597 19.5792 24.5111 20.0024 24.6744 20.0191C24.7119 20.0231 24.7494 20.0248 24.7863 20.0248C25.2943 20.0248 25.7421 19.6704 25.8514 19.1641C25.8858 19.0039 26.6741 15.2096 24.7048 12.4989C24.6775 12.4614 24.6497 12.4242 24.6216 12.387C24.6662 12.3737 24.7105 12.3601 24.7548 12.3456C27.9405 11.3105 29.5336 7.77803 29.5997 7.6281C29.8246 7.1198 29.631 6.52348 29.1502 6.24435Z" fill="#00CE6B"/>
<path d="M170.251 10.2876C169.332 10.2876 168.515 10.493 167.8 10.9037C167.086 11.3055 166.528 11.8725 166.126 12.6047C165.733 13.3369 165.537 14.1674 165.537 15.096C165.537 16.0336 165.733 16.8685 166.126 17.6007C166.528 18.3329 167.086 18.9043 167.8 19.3151C168.515 19.7258 169.332 19.9312 170.251 19.9312C171.171 19.9312 171.988 19.7258 172.702 19.3151C173.417 18.9043 173.97 18.3329 174.363 17.6007C174.765 16.8685 174.966 16.0336 174.966 15.096C174.966 14.1674 174.765 13.3369 174.363 12.6047C173.97 11.8725 173.417 11.3055 172.702 10.9037C171.988 10.493 171.171 10.2876 170.251 10.2876ZM170.251 11.0109C171.046 11.0109 171.743 11.1805 172.341 11.5198C172.939 11.8591 173.399 12.3369 173.72 12.953C174.042 13.5691 174.203 14.2834 174.203 15.096C174.203 15.9086 174.042 16.6274 173.72 17.2524C173.399 17.8775 172.939 18.3641 172.341 18.7124C171.743 19.0517 171.046 19.2213 170.251 19.2213C169.448 19.2213 168.747 19.0517 168.149 18.7124C167.559 18.3641 167.104 17.8775 166.782 17.2524C166.461 16.6274 166.3 15.9086 166.3 15.096C166.3 14.2834 166.461 13.5691 166.782 12.953C167.104 12.3369 167.559 11.8591 168.149 11.5198C168.747 11.1805 169.448 11.0109 170.251 11.0109ZM170.305 12.0958C171.01 12.0958 171.622 12.3056 172.14 12.7253C172.667 13.145 172.993 13.712 173.118 14.4263H171.189C171.118 14.1763 170.992 13.9798 170.814 13.837C170.644 13.6941 170.439 13.6227 170.198 13.6227C169.876 13.6227 169.613 13.7522 169.408 14.0111C169.202 14.2611 169.099 14.6272 169.099 15.1094C169.099 15.5916 169.202 15.9621 169.408 16.2211C169.613 16.48 169.876 16.6095 170.198 16.6095C170.439 16.6095 170.644 16.5381 170.814 16.3952C170.992 16.2434 171.118 16.047 171.189 15.8059H173.118C172.993 16.5113 172.667 17.0738 172.14 17.4935C171.622 17.9132 171.01 18.123 170.305 18.123C169.725 18.123 169.207 18.0025 168.751 17.7614C168.305 17.5203 167.952 17.1721 167.693 16.7167C167.443 16.2613 167.318 15.7255 167.318 15.1094C167.318 14.4933 167.443 13.9575 167.693 13.5021C167.952 13.0467 168.305 12.6985 168.751 12.4574C169.207 12.2163 169.725 12.0958 170.305 12.0958Z" fill="#232323"/>
<path d="M58.1781 11.0259V14.0685H53.8826V26.8432H50.0345V14.0685H45.7838V11.0259H58.1781Z" fill="#232323"/>
<path d="M65.6298 14.2028C66.8678 14.2028 67.9715 14.4638 68.941 14.9858C69.9254 15.4929 70.6935 16.2312 71.2453 17.2007C71.8121 18.1701 72.0955 19.3037 72.0955 20.6013C72.0955 21.8989 71.8121 23.0324 71.2453 24.0019C70.6935 24.9714 69.9254 25.7171 68.941 26.2391C67.9715 26.7462 66.8678 26.9998 65.6298 26.9998C64.3919 26.9998 63.2807 26.7462 62.2964 26.2391C61.312 25.7171 60.5364 24.9714 59.9696 24.0019C59.4178 23.0324 59.1418 21.8989 59.1418 20.6013C59.1418 19.3037 59.4178 18.1701 59.9696 17.2007C60.5364 16.2312 61.312 15.4929 62.2964 14.9858C63.2807 14.4638 64.3919 14.2028 65.6298 14.2028ZM65.6298 17.5139C64.899 17.5139 64.28 17.7824 63.7729 18.3193C63.2807 18.8413 63.0346 19.602 63.0346 20.6013C63.0346 21.6006 63.2807 22.3612 63.7729 22.8833C64.28 23.4053 64.899 23.6663 65.6298 23.6663C66.3607 23.6663 66.9722 23.4053 67.4644 22.8833C67.9566 22.3612 68.2027 21.6006 68.2027 20.6013C68.2027 19.602 67.9566 18.8413 67.4644 18.3193C66.9722 17.7824 66.3607 17.5139 65.6298 17.5139Z" fill="#232323"/>
<path d="M90.2545 14.2251C91.7908 14.2251 92.9989 14.7024 93.8789 15.657C94.7589 16.5966 95.1989 17.9091 95.1989 19.5945V26.8432H91.3955V20.042C91.3955 19.2515 91.1793 18.64 90.7467 18.2074C90.3291 17.76 89.7549 17.5363 89.0241 17.5363C88.2634 17.5363 87.6593 17.7749 87.2119 18.2522C86.7794 18.7145 86.5631 19.3708 86.5631 20.221V26.8432H82.7374V20.042C82.7374 19.2515 82.5286 18.64 82.111 18.2074C81.6934 17.76 81.1191 17.5363 80.3883 17.5363C79.6276 17.5363 79.0236 17.7674 78.5761 18.2298C78.1287 18.6922 77.905 19.3559 77.905 20.221V26.8432H74.0793V14.3594H77.905V16.4848C78.2331 15.7838 78.7327 15.2319 79.4039 14.8292C80.09 14.4265 80.888 14.2251 81.7978 14.2251C82.7523 14.2251 83.595 14.4489 84.3259 14.8963C85.0567 15.3289 85.6085 15.9553 85.9814 16.7756C86.4139 16 87.0031 15.3811 87.7488 14.9187C88.5095 14.4563 89.3447 14.2251 90.2545 14.2251Z" fill="#232323"/>
<path d="M102.484 14.2028C103.438 14.2028 104.259 14.419 104.945 14.8516C105.631 15.2841 106.138 15.8732 106.466 16.619V14.3594H110.269V26.8432H106.466V24.5836C106.138 25.3293 105.631 25.9185 104.945 26.351C104.259 26.7835 103.438 26.9998 102.484 26.9998C101.455 26.9998 100.53 26.7462 99.7095 26.2391C98.9041 25.7171 98.2628 24.9714 97.7855 24.0019C97.3231 23.0324 97.0919 21.8989 97.0919 20.6013C97.0919 19.2888 97.3231 18.1552 97.7855 17.2007C98.2628 16.2312 98.9041 15.4929 99.7095 14.9858C100.53 14.4638 101.455 14.2028 102.484 14.2028ZM103.714 17.5586C102.894 17.5586 102.23 17.8271 101.723 18.364C101.231 18.901 100.985 19.6467 100.985 20.6013C100.985 21.5558 101.231 22.3016 101.723 22.8385C102.23 23.3755 102.894 23.6439 103.714 23.6439C104.52 23.6439 105.176 23.368 105.683 22.8162C106.205 22.2643 106.466 21.526 106.466 20.6013C106.466 19.6616 106.205 18.9234 105.683 18.3864C105.176 17.8346 104.52 17.5586 103.714 17.5586Z" fill="#232323"/>
<path d="M117.646 14.2028C118.601 14.2028 119.421 14.419 120.107 14.8516C120.793 15.2841 121.293 15.8732 121.606 16.619V10.2876H125.432V26.8432H121.606V24.5836C121.293 25.3293 120.793 25.9185 120.107 26.351C119.421 26.7835 118.601 26.9998 117.646 26.9998C116.617 26.9998 115.692 26.7462 114.872 26.2391C114.067 25.7171 113.425 24.9714 112.948 24.0019C112.486 23.0324 112.255 21.8989 112.255 20.6013C112.255 19.2888 112.486 18.1552 112.948 17.2007C113.425 16.2312 114.067 15.4929 114.872 14.9858C115.692 14.4638 116.617 14.2028 117.646 14.2028ZM118.877 17.5586C118.056 17.5586 117.393 17.8271 116.886 18.364C116.393 18.901 116.147 19.6467 116.147 20.6013C116.147 21.5558 116.393 22.3016 116.886 22.8385C117.393 23.3755 118.056 23.6439 118.877 23.6439C119.682 23.6439 120.338 23.368 120.846 22.8162C121.368 22.2643 121.629 21.526 121.629 20.6013C121.629 19.6616 121.368 18.9234 120.846 18.3864C120.338 17.8346 119.682 17.5586 118.877 17.5586Z" fill="#232323"/>
<path d="M133.905 14.2028C135.143 14.2028 136.247 14.4638 137.216 14.9858C138.201 15.4929 138.969 16.2312 139.521 17.2007C140.087 18.1701 140.371 19.3037 140.371 20.6013C140.371 21.8989 140.087 23.0324 139.521 24.0019C138.969 24.9714 138.201 25.7171 137.216 26.2391C136.247 26.7462 135.143 26.9998 133.905 26.9998C132.667 26.9998 131.556 26.7462 130.572 26.2391C129.587 25.7171 128.812 24.9714 128.245 24.0019C127.693 23.0324 127.417 21.8989 127.417 20.6013C127.417 19.3037 127.693 18.1701 128.245 17.2007C128.812 16.2312 129.587 15.4929 130.572 14.9858C131.556 14.4638 132.667 14.2028 133.905 14.2028ZM133.905 17.5139C133.174 17.5139 132.555 17.7824 132.048 18.3193C131.556 18.8413 131.31 19.602 131.31 20.6013C131.31 21.6006 131.556 22.3612 132.048 22.8833C132.555 23.4053 133.174 23.6663 133.905 23.6663C134.636 23.6663 135.247 23.4053 135.74 22.8833C136.232 22.3612 136.478 21.6006 136.478 20.6013C136.478 19.602 136.232 18.8413 135.74 18.3193C135.247 17.7824 134.636 17.5139 133.905 17.5139Z" fill="#232323"/>
<path d="M146.18 16.7085C146.657 15.9478 147.269 15.3438 148.015 14.8963C148.775 14.4489 149.596 14.2251 150.476 14.2251V18.3193H149.379C148.365 18.3193 147.575 18.5356 147.008 18.9681C146.456 19.4006 146.18 20.1315 146.18 21.1606V26.8432H142.355V14.3594H146.18V16.7085Z" fill="#232323"/>
<path d="M157.916 14.2028C159.154 14.2028 160.258 14.4638 161.227 14.9858C162.212 15.4929 162.98 16.2312 163.532 17.2007C164.098 18.1701 164.382 19.3037 164.382 20.6013C164.382 21.8989 164.098 23.0324 163.532 24.0019C162.98 24.9714 162.212 25.7171 161.227 26.2391C160.258 26.7462 159.154 26.9998 157.916 26.9998C156.678 26.9998 155.567 26.7462 154.583 26.2391C153.598 25.7171 152.823 24.9714 152.256 24.0019C151.704 23.0324 151.428 21.8989 151.428 20.6013C151.428 19.3037 151.704 18.1701 152.256 17.2007C152.823 16.2312 153.598 15.4929 154.583 14.9858C155.567 14.4638 156.678 14.2028 157.916 14.2028ZM157.916 17.5139C157.185 17.5139 156.566 17.7824 156.059 18.3193C155.567 18.8413 155.321 19.602 155.321 20.6013C155.321 21.6006 155.567 22.3612 156.059 22.8833C156.566 23.4053 157.185 23.6663 157.916 23.6663C158.647 23.6663 159.258 23.4053 159.751 22.8833C160.243 22.3612 160.489 21.6006 160.489 20.6013C160.489 19.602 160.243 18.8413 159.751 18.3193C159.258 17.7824 158.647 17.5139 157.916 17.5139Z" fill="#232323"/>
</svg>
