<svg width="370" height="395" viewBox="0 0 370 395" fill="none" xmlns="http://www.w3.org/2000/svg">
<path d="M270.257 74.4268C248.853 58.386 223.493 48.5892 196.91 46.0979C191.392 45.5805 186.495 49.6338 185.978 55.1544C185.832 56.7261 186.063 58.2396 186.585 59.6214L45.0122 112.851C44.4924 111.469 43.6706 110.174 42.5259 109.091C38.498 105.279 32.1457 105.455 28.3327 109.48C9.97994 128.865 -2.64525 152.942 -8.18125 179.108C-13.8684 206.001 -11.7406 233.875 -2.02518 259.717C11.6767 296.163 41.4235 323.966 81.738 338.005C121.401 351.821 166.663 350.625 209.188 334.638C251.71 318.651 286.552 289.732 307.291 253.209C328.371 216.088 332.434 175.572 318.732 139.126C309.017 113.284 292.255 90.9117 270.257 74.4268Z" fill="#F92544"/>
<path fill-rule="evenodd" clip-rule="evenodd" d="M173.655 189.516C175.575 191.093 175.853 193.927 174.276 195.847L140.344 237.162C138.767 239.082 135.932 239.36 134.012 237.784C132.093 236.207 131.814 233.372 133.391 231.452L167.323 190.137C168.9 188.217 171.735 187.939 173.655 189.516Z" fill="white"/>
<path d="M173.051 207.467C173.885 215.96 167.675 223.521 159.181 224.355C150.688 225.188 143.127 218.978 142.293 210.485C141.46 201.991 147.67 194.43 156.163 193.597C164.657 192.764 172.218 198.973 173.051 207.467Z" fill="#FF0065"/>
<path fill-rule="evenodd" clip-rule="evenodd" d="M158.303 215.401C161.851 215.053 164.446 211.894 164.097 208.345C163.749 204.797 160.59 202.203 157.042 202.551C153.494 202.899 150.899 206.058 151.247 209.606C151.596 213.155 154.754 215.749 158.303 215.401ZM159.181 224.355C167.675 223.521 173.885 215.96 173.051 207.467C172.218 198.973 164.657 192.764 156.163 193.597C147.67 194.43 141.46 201.991 142.293 210.485C143.127 218.978 150.688 225.188 159.181 224.355Z" fill="white"/>
<path fill-rule="evenodd" clip-rule="evenodd" d="M150.479 101.28C154.759 100.86 158.569 103.989 158.989 108.269L159.723 115.757C160.143 120.037 157.014 123.847 152.734 124.267C148.454 124.687 144.644 121.558 144.224 117.278L143.49 109.79C143.07 105.51 146.199 101.7 150.479 101.28Z" fill="white"/>
<path fill-rule="evenodd" clip-rule="evenodd" d="M168.347 283.395C172.627 282.975 176.437 286.104 176.857 290.384L177.591 297.872C178.011 302.152 174.882 305.962 170.602 306.382C166.322 306.802 162.512 303.673 162.092 299.393L161.358 291.905C160.938 287.625 164.067 283.815 168.347 283.395Z" fill="white"/>
<path fill-rule="evenodd" clip-rule="evenodd" d="M263.092 193.77C263.512 198.049 260.383 201.859 256.103 202.279L248.614 203.014C244.334 203.434 240.524 200.305 240.105 196.025C239.685 191.745 242.814 187.935 247.094 187.515L254.582 186.78C258.862 186.36 262.672 189.49 263.092 193.77Z" fill="white"/>
<path fill-rule="evenodd" clip-rule="evenodd" d="M80.977 211.638C81.3969 215.918 78.2677 219.728 73.9878 220.148L66.4996 220.883C62.2197 221.303 58.4097 218.174 57.9897 213.894C57.5698 209.614 60.699 205.804 64.9789 205.384L72.4671 204.649C76.747 204.229 80.557 207.358 80.977 211.638Z" fill="white"/>
<path fill-rule="evenodd" clip-rule="evenodd" d="M240.17 269.231C237.44 272.554 232.534 273.036 229.21 270.306L223.396 265.531C220.073 262.802 219.591 257.895 222.321 254.572C225.05 251.248 229.957 250.767 233.28 253.496L239.094 258.272C242.418 261.001 242.899 265.908 240.17 269.231Z" fill="white"/>
<path fill-rule="evenodd" clip-rule="evenodd" d="M98.7604 153.091C96.031 156.414 91.1243 156.896 87.801 154.166L81.9865 149.391C78.6632 146.661 78.1818 141.755 80.9112 138.431C83.6406 135.108 88.5473 134.627 91.8707 137.356L97.6851 142.131C101.008 144.861 101.49 149.768 98.7604 153.091Z" fill="white"/>
<path fill-rule="evenodd" clip-rule="evenodd" d="M95.1408 283.461C91.8175 280.731 91.3361 275.824 94.0655 272.501L98.841 266.687C101.57 263.363 106.477 262.882 109.8 265.611C113.124 268.341 113.605 273.248 110.876 276.571L106.1 282.385C103.371 285.709 98.4641 286.19 95.1408 283.461Z" fill="white"/>
<path fill-rule="evenodd" clip-rule="evenodd" d="M211.281 142.051C207.958 139.322 207.476 134.415 210.206 131.092L214.981 125.277C217.71 121.954 222.617 121.472 225.941 124.202C229.264 126.931 229.745 131.838 227.016 135.161L222.24 140.976C219.511 144.299 214.604 144.78 211.281 142.051Z" fill="white"/>
<path d="M199.448 32.9579C198.506 32.8008 176.145 29.1692 155.014 37.1136C148.879 39.4201 143.366 42.5064 138.63 46.2897C136.042 48.3576 133.616 50.68 131.361 53.254L122.085 28.5814C117.007 15.0729 101.888 8.21587 88.3792 13.2944C74.8732 18.372 68.0162 33.4908 73.0947 46.9993L82.3722 71.6769C78.9805 71.2286 75.6224 71.0778 72.3128 71.2271C66.2547 71.5021 60.0719 72.8126 53.9368 75.1191C32.8052 83.0635 18.378 100.52 17.7731 101.259C14.5377 105.223 14.7999 110.987 18.3824 114.64C19.4384 115.718 44.6107 141.003 75.4227 139.603C75.8504 139.582 76.2773 139.558 76.7072 139.528C76.582 139.938 76.4661 140.35 76.3526 140.762C68.162 170.498 87.2429 200.643 88.0604 201.911C90.8286 206.213 96.3883 207.74 100.973 205.469C102.323 204.797 134.152 188.672 142.342 158.933C142.454 158.519 142.564 158.106 142.668 157.69C143.019 157.935 143.374 158.173 143.732 158.41C169.481 175.387 204.043 166.555 205.505 166.17C205.841 166.083 206.169 165.976 206.487 165.857C210.865 164.211 213.576 159.706 212.878 154.988C212.655 153.497 207.155 118.243 181.402 101.263C181.045 101.028 180.685 100.798 180.322 100.568C180.663 100.309 181.001 100.048 181.335 99.7794C205.437 80.5377 207.721 44.9332 207.805 43.4267C208.097 38.3176 204.495 33.8059 199.448 32.9579Z" fill="#00CE6B"/>
</svg>
