<svg width="121" height="121" viewBox="0 0 121 121" fill="none" xmlns="http://www.w3.org/2000/svg">
<path fill-rule="evenodd" clip-rule="evenodd" d="M70.5736 55.3601C71.3075 56.6314 70.872 58.257 69.6007 58.991L42.2438 74.7854C40.9726 75.5194 39.347 75.0838 38.613 73.8126C37.879 72.5413 38.3146 70.9157 39.5859 70.1817L66.9427 54.3873C68.214 53.6533 69.8396 54.0889 70.5736 55.3601Z" fill="#B519FF"/>
<path d="M66.5074 65.1623C65.2023 70.0331 60.1958 72.9236 55.325 71.6185C50.4543 70.3134 47.5638 65.3069 48.8689 60.4361C50.174 55.5654 55.1805 52.6749 60.0512 53.98C64.922 55.2851 67.8125 60.2916 66.5074 65.1623Z" fill="white"/>
<path fill-rule="evenodd" clip-rule="evenodd" d="M56.7009 66.4837C58.7358 67.029 60.8274 65.8214 61.3726 63.7865C61.9179 61.7516 60.7103 59.66 58.6754 59.1148C56.6405 58.5695 54.5489 59.7771 54.0036 61.812C53.4584 63.8469 54.666 65.9385 56.7009 66.4837ZM55.325 71.6185C60.1958 72.9236 65.2023 70.0331 66.5074 65.1623C67.8125 60.2916 64.922 55.2851 60.0512 53.98C55.1805 52.6749 50.174 55.5654 48.8689 60.4361C47.5638 65.3069 50.4543 70.3134 55.325 71.6185Z" fill="#B519FF"/>
<path fill-rule="evenodd" clip-rule="evenodd" d="M76.1022 1.74132C78.5565 2.39897 80.0131 4.92177 79.3554 7.37616L78.2048 11.6704C77.5472 14.1248 75.0243 15.5813 72.57 14.9236C70.1156 14.266 68.659 11.7432 69.3167 9.28881L70.4673 4.9946C71.125 2.54021 73.6478 1.08367 76.1022 1.74132Z" fill="#B519FF"/>
<path fill-rule="evenodd" clip-rule="evenodd" d="M48.1182 106.177C50.5726 106.835 52.0291 109.358 51.3715 111.812L50.2208 116.107C49.5632 118.561 47.0404 120.017 44.586 119.36C42.1316 118.702 40.675 116.179 41.3327 113.725L42.4833 109.431C43.141 106.976 45.6638 105.52 48.1182 106.177Z" fill="#B519FF"/>
<path fill-rule="evenodd" clip-rule="evenodd" d="M119.153 76.3088C118.496 78.7631 115.973 80.2197 113.519 79.562L109.224 78.4114C106.77 77.7538 105.313 75.2309 105.971 72.7766C106.629 70.3222 109.152 68.8656 111.606 69.5233L115.9 70.6739C118.355 71.3316 119.811 73.8544 119.153 76.3088Z" fill="#B519FF"/>
<path fill-rule="evenodd" clip-rule="evenodd" d="M14.7172 48.3251C14.0596 50.7795 11.5368 52.236 9.08238 51.5784L4.78817 50.4277C2.33378 49.7701 0.877244 47.2473 1.5349 44.7929C2.19255 42.3385 4.71535 40.882 7.16974 41.5396L11.4639 42.6902C13.9183 43.3479 15.3749 45.8707 14.7172 48.3251Z" fill="#B519FF"/>
<path fill-rule="evenodd" clip-rule="evenodd" d="M90.7859 113.278C88.5854 114.548 85.7716 113.794 84.5011 111.594L82.2782 107.743C81.0077 105.543 81.7617 102.729 83.9622 101.459C86.1628 100.188 88.9766 100.942 90.2471 103.143L92.4699 106.993C93.7404 109.193 92.9865 112.007 90.7859 113.278Z" fill="#B519FF"/>
<path fill-rule="evenodd" clip-rule="evenodd" d="M36.7259 19.6425C34.5254 20.913 31.7116 20.159 30.4411 17.9585L28.2182 14.1084C26.9478 11.9078 27.7017 9.09401 29.9023 7.82353C32.1028 6.55305 34.9166 7.30701 36.1871 9.50755L38.41 13.3576C39.6804 15.5582 38.9265 18.372 36.7259 19.6425Z" fill="#B519FF"/>
<path fill-rule="evenodd" clip-rule="evenodd" d="M7.61711 90.9922C6.34663 88.7917 7.10059 85.9779 9.30113 84.7074L13.1512 82.4845C15.3518 81.214 18.1656 81.968 19.4361 84.1685C20.7065 86.3691 19.9526 89.1829 17.752 90.4534L13.902 92.6762C11.7014 93.9467 8.8876 93.1928 7.61711 90.9922Z" fill="#B519FF"/>
<path fill-rule="evenodd" clip-rule="evenodd" d="M101.252 36.9325C99.9818 34.7319 100.736 31.9181 102.936 30.6476L106.786 28.4248C108.987 27.1543 111.801 27.9083 113.071 30.1088C114.342 32.3094 113.588 35.1232 111.387 36.3937L107.537 38.6165C105.337 39.887 102.523 39.133 101.252 36.9325Z" fill="#B519FF"/>
</svg>
