<svg width="240" height="128" viewBox="0 0 240 128" fill="none" xmlns="http://www.w3.org/2000/svg">
<path d="M61.1424 101.164C61.1424 95.7388 56.7441 91.3405 51.3185 91.3405V91.3405C45.893 91.3405 41.4947 95.7388 41.4947 101.164V117.851C41.4947 123.277 45.893 127.675 51.3185 127.675V127.675C56.7441 127.675 61.1424 123.277 61.1424 117.851V101.164Z" fill="#FFC3A0"/>
<path d="M13.9509 44.2808C13.9509 64.327 30.2016 80.5777 50.2478 80.5777C70.294 80.5777 86.5447 64.327 86.5447 44.2808C86.5447 24.2346 70.294 7.98395 50.2478 7.98395C30.2016 7.98395 13.9509 24.2346 13.9509 44.2808Z" fill="#593029"/>
<path d="M1.06583e-05 59.7378C1.06583e-05 65.8763 4.97629 70.8526 11.1148 70.8526C17.2534 70.8526 22.2297 65.8763 22.2297 59.7378C22.2297 53.5992 17.2534 48.6229 11.1148 48.6229C4.97629 48.6229 1.06583e-05 53.5992 1.06583e-05 59.7378Z" fill="#FFD9C2"/>
<path d="M4.16804 59.7376C4.16804 63.5742 7.27822 66.6844 11.1148 66.6844C14.9514 66.6844 18.0616 63.5742 18.0616 59.7376C18.0616 55.901 14.9514 52.7908 11.1148 52.7908C7.27822 52.7908 4.16804 55.901 4.16804 59.7376Z" fill="#FFC3A0"/>
<path d="M77.8594 59.7378C77.8594 65.8763 82.8357 70.8526 88.9743 70.8526C95.1128 70.8526 100.089 65.8763 100.089 59.7378C100.089 53.5992 95.1128 48.6229 88.9743 48.6229C82.8357 48.6229 77.8594 53.5992 77.8594 59.7378Z" fill="#FFD9C2"/>
<path d="M82.0275 59.7376C82.0275 63.5742 85.1377 66.6844 88.9742 66.6844C92.8108 66.6844 95.921 63.5742 95.921 59.7376C95.921 55.901 92.8108 52.7908 88.9742 52.7908C85.1377 52.7908 82.0275 55.901 82.0275 59.7376Z" fill="#FFC9A9"/>
<path d="M84.9816 46.5389C84.9816 27.3559 69.4308 11.805 50.2478 11.805V11.805C31.0648 11.805 15.5139 27.3559 15.5139 46.5389V81.2727C15.5139 100.456 31.0648 116.007 50.2478 116.007V116.007C69.4308 116.007 84.9816 100.456 84.9816 81.2727V46.5389Z" fill="#FFD9C2"/>
<path fill-rule="evenodd" clip-rule="evenodd" d="M23.3974 62.3531C28.508 71.2049 39.8268 74.2378 48.6785 69.1272C51.7845 67.3339 56.1381 67.2652 57.6065 69.2284C59.0748 67.2652 63.4284 67.3339 66.5344 69.1272C75.3862 74.2378 86.7049 71.2049 91.8155 62.3531C92.1138 61.8365 92.8975 61.9001 93.0294 62.4818C94.0235 66.8665 93.4322 71.6227 91.0069 75.8233C85.8964 84.6751 74.5776 87.708 65.7258 82.5974C61.8196 80.3421 59.0466 76.8779 57.6065 72.9502C56.1663 76.8779 53.3933 80.3421 49.4871 82.5974C40.6353 87.708 29.3166 84.6751 24.206 75.8233C21.7807 71.6227 21.1894 66.8665 22.1836 62.4818C22.3155 61.9001 23.0992 61.8365 23.3974 62.3531Z" fill="#593029"/>
<path d="M72.4587 30.5601C72.4587 36.9155 77.6107 42.0676 83.9661 42.0676C90.3215 42.0676 95.4736 36.9155 95.4736 30.5601C95.4736 24.2047 90.3215 19.0527 83.9661 19.0527C77.6107 19.0527 72.4587 24.2047 72.4587 30.5601Z" fill="#593029"/>
<path d="M33.131 22.5848C33.131 28.9402 38.283 34.0923 44.6384 34.0923C50.9938 34.0923 56.1459 28.9402 56.1459 22.5848C56.1459 16.2294 50.9938 11.0773 44.6384 11.0773C38.283 11.0773 33.131 16.2294 33.131 22.5848Z" fill="#593029"/>
<path d="M61.9616 11.5075C61.9616 17.8629 56.8096 23.0149 50.4542 23.0149C44.0988 23.0149 38.9467 17.8629 38.9467 11.5075C38.9467 5.15207 44.0988 0 50.4542 0C56.8096 0 61.9616 5.15207 61.9616 11.5075Z" fill="#593029"/>
<path d="M22.2296 19.6428C22.2296 25.9982 27.3816 31.1503 33.737 31.1503C40.0924 31.1503 45.2445 25.9982 45.2445 19.6428C45.2445 13.2874 40.0924 8.13538 33.737 8.13538C27.3816 8.13538 22.2296 13.2874 22.2296 19.6428Z" fill="#593029"/>
<path d="M15.514 31.3209C15.514 37.6763 20.6661 42.8284 27.0215 42.8284C33.3769 42.8284 38.5289 37.6763 38.5289 31.3209C38.5289 24.9655 33.3769 19.8135 27.0215 19.8135C20.6661 19.8135 15.514 24.9655 15.514 31.3209Z" fill="#593029"/>
<path d="M52.6389 19.0524C52.6389 27.9136 59.8223 35.097 68.6835 35.097C77.5447 35.097 84.7281 27.9136 84.7281 19.0524C84.7281 10.1913 77.5447 3.00787 68.6835 3.00787C59.8223 3.00787 52.6389 10.1913 52.6389 19.0524Z" fill="#593029"/>
<path d="M68.6833 57.1775C68.6833 59.1627 70.2927 60.7721 72.278 60.7721C74.2633 60.7721 75.8727 59.1627 75.8727 57.1775C75.8727 55.1922 74.2633 53.5828 72.278 53.5828C70.2927 53.5828 68.6833 55.1922 68.6833 57.1775Z" fill="#232323"/>
<path d="M73.2295 55.5521C73.2295 56.4498 73.9571 57.1775 74.8548 57.1775C75.7524 57.1775 76.4801 56.4498 76.4801 55.5521C76.4801 54.6545 75.7524 53.9268 74.8548 53.9268C73.9571 53.9268 73.2295 54.6545 73.2295 55.5521Z" fill="white"/>
<path d="M41.8383 57.1775C41.8383 59.1627 43.4477 60.7721 45.433 60.7721C47.4183 60.7721 49.0277 59.1627 49.0277 57.1775C49.0277 55.1922 47.4183 53.5828 45.433 53.5828C43.4477 53.5828 41.8383 55.1922 41.8383 57.1775Z" fill="#232323"/>
<path d="M46.3843 55.5521C46.3843 56.4498 47.1119 57.1775 48.0096 57.1775C48.9072 57.1775 49.6349 56.4498 49.6349 55.5521C49.6349 54.6545 48.9072 53.9268 48.0096 53.9268C47.1119 53.9268 46.3843 54.6545 46.3843 55.5521Z" fill="white"/>
<path fill-rule="evenodd" clip-rule="evenodd" d="M39.4995 46.7518C41.1883 46.5935 42.8294 47.1925 43.7821 47.791C44.6715 48.3498 45.8455 48.0818 46.4043 47.1924C46.9631 46.303 46.6951 45.129 45.8057 44.5702C44.3181 43.6355 41.8506 42.7109 39.1444 42.9646C36.3112 43.2303 33.4337 44.7731 31.3443 48.3922C30.8191 49.3018 31.1307 50.465 32.0404 50.9902C32.9501 51.5154 34.1132 51.2037 34.6384 50.2941C36.1342 47.7034 37.9379 46.8982 39.4995 46.7518Z" fill="#593029"/>
<path fill-rule="evenodd" clip-rule="evenodd" d="M76.5409 47.1904C78.0826 47.8976 79.2043 49.2369 79.7301 50.2317C80.2209 51.1603 81.3717 51.5152 82.3003 51.0244C83.229 50.5335 83.5839 49.3828 83.093 48.4542C82.272 46.9009 80.5974 44.8663 78.1269 43.733C75.5404 42.5465 72.2771 42.4438 68.658 44.5333C67.7484 45.0585 67.4367 46.2217 67.9619 47.1314C68.4871 48.041 69.6503 48.3527 70.5599 47.8275C73.1506 46.3318 75.1152 46.5364 76.5409 47.1904Z" fill="#593029"/>
<path d="M63.6726 53.9339H51.5402V69.5006C51.5402 72.8509 54.2561 75.5668 57.6064 75.5668V75.5668C60.9566 75.5668 63.6726 72.8509 63.6726 69.5006V53.9339Z" fill="#FFC3A0"/>
<path d="M129.291 29.6243C137.891 23.4855 142.191 18.6042 142.191 14.9804C142.191 12.7628 141.23 11.654 139.31 11.654C138.229 11.654 137.431 12.0327 136.917 12.7899C136.43 13.5471 136.16 14.7235 136.106 16.319H129.331C129.494 12.8304 130.548 10.2072 132.495 8.44941C134.443 6.69159 136.904 5.81268 139.878 5.81268C142.988 5.81268 145.328 6.59694 146.896 8.16545C148.492 9.73397 149.289 11.7757 149.289 14.2908C149.289 17.0762 148.221 19.8076 146.085 22.4849C143.948 25.1351 141.393 27.3797 138.418 29.2187H149.736V34.8167H129.291V29.6243Z" fill="#B519FF"/>
<path d="M152.673 29.8677V24.0669L165.775 6.09664H173.239V23.8235H176.687V29.8677H173.239V35.1412H166.221V29.8677H152.673ZM166.789 14.1285L159.731 23.8235H166.789V14.1285Z" fill="#B519FF"/>
<path d="M187.554 11.6946V18.6312H180.333V11.6946H187.554ZM187.554 28.2046V35.1412H180.333V28.2046H187.554Z" fill="#B519FF"/>
<path d="M191.097 20.4972C191.097 24.9864 192.003 28.5426 193.815 31.1658C195.626 33.789 198.52 35.1006 202.495 35.1006C206.444 35.1006 209.324 33.789 211.136 31.1658C212.975 28.5426 213.894 24.9864 213.894 20.4972C213.894 16.0351 212.975 12.5059 211.136 9.90975C209.324 7.28655 206.444 5.97494 202.495 5.97494C198.52 5.97494 195.626 7.28655 193.815 9.90975C192.003 12.5059 191.097 16.0351 191.097 20.4972ZM206.998 20.4972C206.998 23.0663 206.687 25.054 206.065 26.4603C205.47 27.8395 204.28 28.5291 202.495 28.5291C200.684 28.5291 199.467 27.8395 198.845 26.4603C198.223 25.054 197.912 23.0663 197.912 20.4972C197.912 17.9551 198.223 15.9945 198.845 14.6153C199.467 13.2361 200.684 12.5465 202.495 12.5465C204.28 12.5465 205.47 13.2361 206.065 14.6153C206.687 15.9675 206.998 17.9281 206.998 20.4972Z" fill="#B519FF"/>
<path d="M217.202 20.4972C217.202 24.9864 218.108 28.5426 219.92 31.1658C221.732 33.789 224.626 35.1006 228.601 35.1006C232.55 35.1006 235.43 33.789 237.242 31.1658C239.081 28.5426 240 24.9864 240 20.4972C240 16.0351 239.081 12.5059 237.242 9.90975C235.43 7.28655 232.55 5.97494 228.601 5.97494C224.626 5.97494 221.732 7.28655 219.92 9.90975C218.108 12.5059 217.202 16.0351 217.202 20.4972ZM233.104 20.4972C233.104 23.0663 232.793 25.054 232.171 26.4603C231.576 27.8395 230.386 28.5291 228.601 28.5291C226.789 28.5291 225.572 27.8395 224.95 26.4603C224.328 25.054 224.017 23.0663 224.017 20.4972C224.017 17.9551 224.328 15.9945 224.95 14.6153C225.572 13.2361 226.789 12.5465 228.601 12.5465C230.386 12.5465 231.576 13.2361 232.171 14.6153C232.793 15.9675 233.104 17.9281 233.104 20.4972Z" fill="#B519FF"/>
<path fill-rule="evenodd" clip-rule="evenodd" d="M190.161 86.5333C190.557 87.2187 190.322 88.0952 189.636 88.491L174.886 97.007C174.201 97.4028 173.324 97.1679 172.928 96.4825C172.533 95.797 172.768 94.9206 173.453 94.5248L188.203 86.0087C188.889 85.613 189.765 85.8478 190.161 86.5333Z" fill="#B519FF"/>
<path d="M187.969 91.8187C187.265 94.4449 184.565 96.0034 181.939 95.2997C179.313 94.596 177.755 91.8966 178.458 89.2704C179.162 86.6442 181.861 85.0857 184.488 85.7894C187.114 86.4931 188.672 89.1925 187.969 91.8187Z" fill="white"/>
<path fill-rule="evenodd" clip-rule="evenodd" d="M182.681 92.5312C183.778 92.8252 184.906 92.174 185.2 91.0769C185.494 89.9797 184.843 88.8519 183.746 88.558C182.649 88.264 181.521 88.9151 181.227 90.0123C180.933 91.1094 181.584 92.2372 182.681 92.5312ZM181.939 95.2997C184.565 96.0034 187.265 94.4449 187.969 91.8187C188.672 89.1925 187.114 86.4931 184.488 85.7894C181.861 85.0857 179.162 86.6442 178.458 89.2704C177.755 91.8966 179.313 94.596 181.939 95.2997Z" fill="#B519FF"/>
<path fill-rule="evenodd" clip-rule="evenodd" d="M193.142 57.6232C194.465 57.9778 195.251 59.338 194.896 60.6614L194.276 62.9767C193.921 64.3001 192.561 65.0854 191.237 64.7308C189.914 64.3762 189.129 63.016 189.483 61.6926L190.104 59.3773C190.458 58.0539 191.818 57.2686 193.142 57.6232Z" fill="#B519FF"/>
<path fill-rule="evenodd" clip-rule="evenodd" d="M178.054 113.933C179.377 114.288 180.162 115.648 179.808 116.971L179.187 119.287C178.833 120.61 177.472 121.395 176.149 121.041C174.826 120.686 174.04 119.326 174.395 118.003L175.015 115.687C175.37 114.364 176.73 113.578 178.054 113.933Z" fill="#B519FF"/>
<path fill-rule="evenodd" clip-rule="evenodd" d="M216.354 97.8287C216 99.1521 214.639 99.9374 213.316 99.5828L211.001 98.9624C209.677 98.6078 208.892 97.2476 209.247 95.9242C209.601 94.6009 210.961 93.8155 212.285 94.1701L214.6 94.7905C215.924 95.1451 216.709 96.5053 216.354 97.8287Z" fill="#B519FF"/>
<path fill-rule="evenodd" clip-rule="evenodd" d="M160.044 82.7401C159.69 84.0634 158.33 84.8488 157.006 84.4942L154.691 83.8738C153.367 83.5192 152.582 82.1589 152.937 80.8356C153.291 79.5122 154.652 78.7269 155.975 79.0815L158.29 79.7019C159.614 80.0565 160.399 81.4167 160.044 82.7401Z" fill="#B519FF"/>
<path fill-rule="evenodd" clip-rule="evenodd" d="M201.059 117.762C199.873 118.447 198.355 118.04 197.67 116.854L196.472 114.778C195.787 113.591 196.193 112.074 197.38 111.389C198.566 110.704 200.084 111.11 200.769 112.297L201.967 114.373C202.652 115.559 202.246 117.076 201.059 117.762Z" fill="#B519FF"/>
<path fill-rule="evenodd" clip-rule="evenodd" d="M171.911 67.2749C170.724 67.96 169.207 67.5534 168.522 66.367L167.324 64.2911C166.639 63.1046 167.045 61.5874 168.232 60.9024C169.418 60.2174 170.935 60.6239 171.62 61.8104L172.819 63.8863C173.504 65.0728 173.097 66.5899 171.911 67.2749Z" fill="#B519FF"/>
<path fill-rule="evenodd" clip-rule="evenodd" d="M156.216 105.745C155.531 104.559 155.938 103.042 157.124 102.357L159.2 101.158C160.387 100.473 161.904 100.88 162.589 102.066C163.274 103.253 162.867 104.77 161.681 105.455L159.605 106.653C158.418 107.338 156.901 106.932 156.216 105.745Z" fill="#B519FF"/>
<path fill-rule="evenodd" clip-rule="evenodd" d="M206.702 76.5975C206.017 75.411 206.424 73.8938 207.61 73.2088L209.686 72.0103C210.873 71.3253 212.39 71.7318 213.075 72.9183C213.76 74.1048 213.353 75.6219 212.167 76.3069L210.091 77.5055C208.905 78.1905 207.387 77.7839 206.702 76.5975Z" fill="#B519FF"/>
</svg>
