<svg width="120" height="121" viewBox="0 0 120 121" fill="none" xmlns="http://www.w3.org/2000/svg">
<path d="M112.016 42.9245C106.986 35.0433 99.8936 28.7185 91.5026 24.6336C89.7608 23.7855 87.6598 24.5093 86.8117 26.252C86.5705 26.7482 86.4599 27.2719 86.4608 27.7882L33.5922 27.79C33.5922 27.2737 33.4826 26.7491 33.2413 26.2538C32.3923 24.5111 30.2923 23.7873 28.5496 24.6354C20.1603 28.7203 13.0679 35.0452 8.03798 42.9254C2.86919 51.0249 0.136749 60.4066 0.136749 70.0569C0.136749 83.667 6.44969 96.4227 17.9131 105.975C29.1911 115.374 44.1473 120.55 60.0274 120.55C75.9067 120.55 90.8638 115.374 102.142 105.975C113.605 96.4227 119.918 83.6661 119.918 70.056C119.918 60.4057 117.186 51.024 112.016 42.9245Z" fill="#F92544"/>
<path d="M93.9491 20.6463C93.6603 20.4791 86.7908 16.5404 78.8996 16.5404C76.6086 16.5404 74.4254 16.8721 72.4103 17.5273C71.3091 17.8856 70.2298 18.3471 69.1752 18.9118V9.69829C69.1752 4.65377 65.072 0.550537 60.0275 0.550537C54.9839 0.550537 50.8807 4.65377 50.8807 9.69829V18.9137C49.8261 18.3498 48.7459 17.8874 47.6447 17.5292C45.6287 16.8739 43.4446 16.5422 41.1535 16.5422C33.2623 16.5422 26.3947 20.4791 26.1059 20.6463C24.5596 21.5456 23.9364 23.4638 24.6592 25.0996C24.8722 25.5821 29.998 36.9515 40.2515 40.2834C40.3941 40.3291 40.5367 40.3739 40.6811 40.4168C40.5897 40.5356 40.501 40.6563 40.4133 40.7769C34.0757 49.4988 36.6107 61.7089 36.7222 62.2243C37.0987 63.9725 38.73 65.156 40.5092 64.9768C41.0338 64.9229 53.4312 63.5622 59.7689 54.8394C59.8566 54.7178 59.9434 54.5963 60.0284 54.4729C60.1134 54.5963 60.2002 54.7178 60.2879 54.8394C66.6247 63.5613 79.0194 64.9229 79.5448 64.9768C79.6655 64.9896 79.7861 64.9951 79.9049 64.9951C81.5398 64.9951 82.9809 63.8546 83.3328 62.2252C83.4434 61.7098 85.9802 49.4988 79.6426 40.7751C79.5549 40.6544 79.4653 40.5347 79.3748 40.415C79.5183 40.372 79.6609 40.3282 79.8035 40.2816C90.0561 36.9505 95.1828 25.5821 95.3958 25.0996C96.1195 23.4638 95.4963 21.5447 93.9491 20.6463Z" fill="#00CE6B"/>
</svg>
